<svg width="140.000000" height="28.354492" viewBox="0 0 140 28.3545" fill="none" xmlns="http://www.w3.org/2000/svg" xmlns:xlink="http://www.w3.org/1999/xlink">
	<desc>
			Created with Pixso.
	</desc>
	<defs>
		<clipPath id="clip2_552">
			<rect rx="0.000000" width="139.000000" height="27.354429" transform="translate(0.500000 0.500000)" fill="white" fill-opacity="0"/>
		</clipPath>
	</defs>
	<rect rx="0.000000" width="139.000000" height="27.354429" transform="translate(0.500000 0.500000)" fill="#FFFFFF" fill-opacity="0"/>
	<g clip-path="url(#clip2_552)">
		<path d="M139.75 21.65L139.75 25.12L136.84 25.12C133.74 25.02 132.08 23.34 132.08 20.2L132.08 12.28L130.05 12.28L130.05 9.25L132.08 9.25L132.08 5.84L136.37 5.84L136.37 9.21L139.65 9.21L139.65 12.24L136.37 12.24L136.37 19.77C136.37 20.79 136.58 21.61 138.14 21.61L139.75 21.65Z" fill="#FFFFFF" fill-opacity="1.000000" fill-rule="nonzero"/>
		<path d="M112.96 17.21L112.96 16.98C112.91 15.96 113.07 14.94 113.42 13.98C113.77 13.03 114.3 12.14 114.99 11.39C115.68 10.64 116.51 10.03 117.43 9.6C118.36 9.17 119.36 8.93 120.38 8.88C120.58 8.88 120.79 8.88 121 8.88C125.05 8.88 128.6 11.24 128.6 16.86L128.6 18.05L117.35 18.05C117.46 20.64 118.86 22.1 121.22 22.1C123.25 22.1 124.2 21.22 124.47 19.92L128.52 19.92C128.02 23.3 125.33 25.18 121.07 25.18C116.39 25.14 112.96 22.18 112.96 17.21ZM124.38 15.34C124.23 12.99 123.04 11.85 120.98 11.85C118.92 11.85 117.73 13.13 117.43 15.34L124.38 15.34Z" fill="#FFFFFF" fill-opacity="1.000000" fill-rule="nonzero"/>
		<path d="M95.45 17.21L95.45 16.98C95.41 15.96 95.56 14.95 95.91 13.99C96.25 13.03 96.79 12.15 97.47 11.4C98.16 10.65 98.99 10.04 99.91 9.61C100.84 9.17 101.83 8.93 102.85 8.88C103.06 8.88 103.27 8.88 103.47 8.88C107.52 8.88 111.08 11.24 111.08 16.86L111.08 18.05L99.84 18.05C99.95 20.64 101.35 22.1 103.71 22.1C105.74 22.1 106.69 21.22 106.96 19.92L111.01 19.92C110.51 23.3 107.81 25.18 103.55 25.18C98.88 25.14 95.45 22.18 95.45 17.21ZM106.87 15.34C106.72 12.99 105.54 11.85 103.47 11.85C101.41 11.85 100.26 13.16 99.93 15.33L106.87 15.34Z" fill="#FFFFFF" fill-opacity="1.000000" fill-rule="nonzero"/>
		<path d="M70.88 9.21L75.42 9.21L78.19 19.72L81.23 9.21L84.78 9.21L87.52 19.72L90.45 9.21L94.6 9.21L89.67 24.82L85.42 24.82L82.76 15.02L79.92 24.82L75.61 24.82L70.88 9.21Z" fill="#FFFFFF" fill-opacity="1.000000" fill-rule="nonzero"/>
		<path d="M56.46 19.91L60.51 19.91C60.7 21.32 61.4 22.13 63.26 22.13C64.93 22.13 65.7 21.5 65.7 20.43C65.7 19.36 64.81 18.9 62.54 18.58C58.39 17.96 56.78 16.76 56.78 13.71C56.78 10.46 59.76 8.85 62.99 8.85C66.45 8.85 69.06 10.11 69.44 13.69L65.44 13.69C65.41 13.42 65.33 13.15 65.2 12.9C65.07 12.65 64.9 12.44 64.68 12.26C64.47 12.08 64.22 11.95 63.95 11.87C63.68 11.79 63.41 11.76 63.13 11.79L63 11.79C61.59 11.79 60.78 12.44 60.78 13.4C60.78 14.36 61.53 14.77 63.82 15.1C67.7 15.69 69.87 16.67 69.87 20.01C69.87 23.35 67.41 25.14 63.3 25.14C59.19 25.14 56.58 23.29 56.46 19.91Z" fill="#FFFFFF" fill-opacity="1.000000" fill-rule="nonzero"/>
		<path d="M39.26 9.21L43.55 9.21L43.55 11.68C44.03 10.77 44.76 10.03 45.66 9.52C46.56 9.02 47.58 8.79 48.6 8.85C51.64 8.85 53.85 10.7 53.85 14.93L53.85 24.86L49.61 24.86L49.61 15.55C49.61 13.43 48.79 12.42 46.88 12.42C46.47 12.38 46.07 12.43 45.68 12.55C45.29 12.67 44.93 12.87 44.62 13.13C44.31 13.39 44.06 13.72 43.87 14.08C43.68 14.44 43.57 14.83 43.54 15.24C43.51 15.42 43.51 15.61 43.54 15.8L43.54 24.82L39.26 24.82L39.26 9.21Z" fill="#FFFFFF" fill-opacity="1.000000" fill-rule="nonzero"/>
		<path d="M30.98 5.28C30.97 4.86 31.08 4.43 31.3 4.07C31.53 3.71 31.85 3.42 32.24 3.24C32.63 3.06 33.07 3 33.49 3.07C33.91 3.14 34.3 3.33 34.62 3.63C34.93 3.92 35.15 4.3 35.25 4.71C35.34 5.13 35.32 5.56 35.17 5.96C35.02 6.37 34.75 6.71 34.4 6.96C34.06 7.21 33.64 7.35 33.21 7.37L33.13 7.37C32.87 7.38 32.6 7.35 32.35 7.26C32.1 7.18 31.87 7.04 31.67 6.86C31.47 6.69 31.31 6.47 31.19 6.24C31.07 6 31 5.74 30.99 5.47C30.98 5.41 30.98 5.35 30.98 5.28ZM30.98 9.21L35.31 9.21L35.31 24.82L31 24.82L30.98 9.21Z" fill="#FFFFFF" fill-opacity="1.000000" fill-rule="nonzero"/>
		<path d="M14.65 3.49L28.35 3.49L28.35 7.27L19.49 7.27L19.49 12.91L26.51 12.91L26.51 16.56L19.48 16.56L19.48 24.82L14.65 24.82L14.65 3.49Z" fill="#FFFFFF" fill-opacity="1.000000" fill-rule="nonzero"/>
		<path d="M6.38 10.47C6.38 11.81 6.38 13.44 4.54 14.1C6.43 14.75 6.38 16.12 6.38 17.56L6.38 22.87C6.38 23.88 6.79 24.5 7.52 24.65C7.68 24.7 7.85 24.72 8.01 24.72L9.79 24.72L9.79 28.26L6.86 28.26C3.74 28.26 2.02 26.49 2.02 23.2L2.02 16.91C2 16.59 1.86 16.28 1.63 16.06C1.39 15.84 1.08 15.71 0.76 15.71L0 15.71L0 12.6L0.76 12.6C1.09 12.59 1.4 12.46 1.64 12.23C1.87 12 2.01 11.68 2.02 11.35L2.02 4.97C2.02 1.74 3.71 0 6.86 0L9.81 0L9.81 3.49L8.04 3.49C7.87 3.49 7.7 3.51 7.54 3.57C6.82 3.75 6.41 4.35 6.41 5.34L6.38 10.47Z" fill="#FFFFFF" fill-opacity="1.000000" fill-rule="nonzero"/>
	</g>
</svg>
