<svg width="0" height="0" class="hidden">
  <symbol xmlns="http://www.w3.org/2000/svg" fill="none" viewBox="0 0 48 48"
    id="category-business-icon">
    <defs>
      <clipPath id="a">
        <rect width="47" height="47" fill="#fff" fill-opacity="0" rx="0"
          transform="translate(.5 .5)"></rect>
      </clipPath>
    </defs>
    <path fill="#FBF6EA"
      d="M39 48H9c-4.98 0-9-4.03-9-9V9c0-4.98 4.02-9 9-9h30c4.97 0 9 4.02 9 9v30a9 9 0 0 1-9 9Z"></path>
    <rect width="47" height="47" fill="none" rx="0" transform="translate(.5 .5)"></rect>
    <g clip-path="url(#a)">
      <path fill="#232536"
        d="m25.03 13.91-11-1.67c-.51-.08-1.03.06-1.42.39-.38.34-.61.83-.61 1.34v21.07c0 .55.44 1 1 1h3.25v-5.25c0-.97.78-1.75 1.75-1.75h2.5c.97 0 1.75.78 1.75 1.75v5.25h4.25v-20.4c0-.86-.63-1.59-1.47-1.73ZM17.5 26.79H16a.749.749 0 1 1 0-1.5h1.5c.41 0 .75.34.75.75s-.34.75-.75.75Zm0-3H16a.749.749 0 1 1 0-1.5h1.5c.41 0 .75.34.75.75s-.34.75-.75.75Zm0-3H16a.749.749 0 1 1 0-1.5h1.5c.41 0 .75.34.75.75s-.34.75-.75.75Zm0-3H16a.749.749 0 1 1 0-1.5h1.5c.41 0 .75.34.75.75s-.34.75-.75.75Zm5 9H21a.749.749 0 1 1 0-1.5h1.5c.41 0 .75.34.75.75s-.34.75-.75.75Zm0-3H21a.749.749 0 1 1 0-1.5h1.5c.41 0 .75.34.75.75s-.34.75-.75.75Zm0-3H21a.749.749 0 1 1 0-1.5h1.5c.41 0 .75.34.75.75s-.34.75-.75.75Zm0-3H21a.749.749 0 1 1 0-1.5h1.5c.41 0 .75.34.75.75s-.34.75-.75.75Z"></path>
      <path fill="#FFD050"
        d="m34.62 22.88-7.12-1.49v14.65h6.75c.96 0 1.75-.78 1.75-1.75v-9.7c0-.82-.57-1.53-1.38-1.71Zm-2.37 10.16h-1.5a.749.749 0 1 1 0-1.5h1.5c.41 0 .75.34.75.75s-.34.75-.75.75Zm0-3h-1.5a.749.749 0 1 1 0-1.5h1.5c.41 0 .75.34.75.75s-.34.75-.75.75Zm0-3h-1.5a.749.749 0 1 1 0-1.5h1.5c.41 0 .75.34.75.75s-.34.75-.75.75Z"></path>
    </g>
  </symbol>
  <symbol xmlns="http://www.w3.org/2000/svg" fill="none" viewBox="0 0 48 48"
    id="category-economy-icon">
    <defs>
      <clipPath id="b">
        <rect width="21.957" height="23" fill="#fff" fill-opacity="0" rx="0"
          transform="translate(13.5 12.5)"></rect>
      </clipPath>
      <clipPath id="a">
        <rect width="47" height="47" fill="#fff" fill-opacity="0" rx="0"
          transform="translate(.5 .5)"></rect>
      </clipPath>
    </defs>
    <path fill="#FBF6EA"
      d="M39 48H9c-4.98 0-9-4.03-9-9V9c0-4.98 4.02-9 9-9h30c4.97 0 9 4.02 9 9v30a9 9 0 0 1-9 9Z"></path>
    <rect width="47" height="47" fill="none" rx="0" transform="translate(.5 .5)"></rect>
    <g clip-path="url(#a)">
      <rect width="21.957" height="23" fill="none" rx="0" transform="translate(13.5 12.5)"></rect>
      <g clip-path="url(#b)">
        <path fill="#232536"
          d="M18.11 27.42h-2.58c-.94 0-1.69.79-1.69 1.77v5.72c0 .6.46 1.09 1.03 1.09h3.89c.57 0 1.04-.49 1.04-1.09v-5.72c0-.98-.76-1.77-1.69-1.77ZM25.69 23.94h-2.58c-.93 0-1.69.8-1.69 1.77v9.2c0 .6.47 1.09 1.04 1.09h3.89c.57 0 1.03-.49 1.03-1.09v-9.2c0-.97-.75-1.77-1.69-1.77ZM33.42 19.98h-2.58c-.93 0-1.69.8-1.69 1.77v13.16c0 .6.46 1.09 1.03 1.09h3.89c.58 0 1.04-.49 1.04-1.09V21.75c0-.97-.76-1.77-1.69-1.77Z"></path>
        <path fill="#FFD050"
          d="M31.36 12.66c-.31-.46-.83-.71-1.37-.66l-4.88.47c-.55.06-1.01.4-1.24.92-.23.52-.17 1.11.14 1.57l.27.41-6.05 4.37-.01.01c-.43.31-.72.79-.8 1.33-.09.54.03 1.09.33 1.54a1.932 1.932 0 0 0 1.61.87c.41 0 .8-.13 1.14-.38l6.06-4.38.28.42c.29.42.74.66 1.23.66h.15c.54-.05 1.01-.4 1.23-.92l2.05-4.65c.23-.52.18-1.11-.14-1.58Z"></path>
      </g>
    </g>
  </symbol>
  <symbol xmlns="http://www.w3.org/2000/svg" fill="none" viewBox="0 0 48 48"
    id="category-startup-icon">
    <defs>
      <clipPath id="a">
        <rect width="22" height="22" fill="#fff" fill-opacity="0" rx="0"
          transform="translate(12.5 12.5)"></rect>
      </clipPath>
    </defs>
    <path fill="#FBF6EA"
      d="M39 48H9c-4.98 0-9-4.03-9-9V9c0-4.98 4.02-9 9-9h30c4.97 0 9 4.02 9 9v30a9 9 0 0 1-9 9Z"></path>
    <rect width="22" height="22" fill="none" rx="0" transform="translate(12.5 12.5)"></rect>
    <g clip-path="url(#a)">
      <path fill="#FFD050"
        d="m17.84 18.21-1.99.15c-.55.04-1.04.33-1.35.8l-2.3 3.47c-.23.36-.27.8-.1 1.18.17.39.52.66.94.72l1.82.28c.43-2.26 1.45-4.52 2.98-6.6ZM22.18 32.13l.28 1.82c.07.42.33.77.72.94.16.07.33.11.5.11.24 0 .47-.07.68-.21l3.47-2.3c.47-.3.76-.8.8-1.35l.15-2c-2.08 1.54-4.34 2.56-6.6 2.99ZM21.49 30.86c.07 0 .13 0 .19-.01.95-.16 1.87-.43 2.74-.78l-7.5-7.5c-.35.87-.62 1.79-.78 2.74-.06.37.07.75.34 1.02l4.18 4.18c.22.23.52.35.83.35Z"></path>
      <path fill="#232536"
        d="M33.16 22.19c1.84-3.55 1.9-7.29 1.81-9.05-.04-.6-.51-1.09-1.12-1.12-.28-.01-.62-.02-1.01-.02-1.96 0-5.07.29-8.04 1.83-2.36 1.22-5.46 3.91-7.28 7.44l.06.06 8.08 8.08.06.06c3.53-1.82 6.22-4.92 7.44-7.28Zm-7.79-5.33a3.356 3.356 0 0 1 4.76 0c.64.63.99 1.48.99 2.38 0 .9-.35 1.75-.99 2.38-.65.66-1.52.99-2.38.99-.86 0-1.73-.33-2.38-.99-.64-.63-.99-1.48-.99-2.38 0-.9.35-1.75.99-2.38Z"></path>
      <path fill="#232536"
        d="M26.32 20.67a2.022 2.022 0 1 0 2.86-2.859 2.022 2.022 0 0 0-2.86 2.859Z"></path>
      <path fill="#FFD050"
        d="M12.68 30.95c.17 0 .35-.07.48-.2l2.2-2.2c.26-.26.26-.69 0-.95a.676.676 0 0 0-.95 0l-2.2 2.2c-.27.26-.27.69 0 .95.13.13.3.2.47.2ZM17.38 29.62a.67.67 0 0 0-.96 0l-4.23 4.22c-.26.27-.26.69 0 .96.13.13.31.2.48.2.17 0 .34-.07.48-.2l4.22-4.23c.27-.26.27-.69.01-.95ZM18.44 31.63l-2.2 2.2c-.27.26-.27.69 0 .95.13.14.3.2.47.2.18 0 .35-.06.48-.2l2.2-2.2c.26-.26.26-.69 0-.95a.676.676 0 0 0-.95 0Z"></path>
    </g>
  </symbol>
  <symbol xmlns="http://www.w3.org/2000/svg" fill="none" viewBox="0 0 48 48"
    id="category-technology-icon">
    <defs>
      <clipPath id="b">
        <rect width="23" height="23" fill="#fff" fill-opacity="0" rx="0"
          transform="translate(12.5 12.5)"></rect>
      </clipPath>
      <clipPath id="a">
        <rect width="47" height="47" fill="#fff" fill-opacity="0" rx="0"
          transform="translate(.5 .5)"></rect>
      </clipPath>
    </defs>
    <path fill="#FBF6EA"
      d="M39 48H9c-4.98 0-9-4.03-9-9V9c0-4.98 4.02-9 9-9h30c4.97 0 9 4.02 9 9v30a9 9 0 0 1-9 9Z"></path>
    <rect width="47" height="47" fill="none" rx="0" transform="translate(.5 .5)"></rect>
    <g clip-path="url(#a)">
      <rect width="23" height="23" fill="none" rx="0" transform="translate(12.5 12.5)"></rect>
      <g clip-path="url(#b)">
        <path fill="#232536"
          d="M27.51 19.03c0 .77.63 1.4 1.41 1.4h4.18c-.08-.99-.31-1.93-.67-2.81h-3.51c-.78 0-1.41.63-1.41 1.41Z"></path>
        <path fill="#FFD050"
          d="M18.37 36h8.44c.39 0 .7-.32.7-.71v-3.61h1.41v-4.57l-7.03-5.27h-6.33c-.39 0-.7.31-.7.7 0 2.49 1.02 4.88 2.81 6.6v6.15c0 .39.31.71.7.71Z"></path>
        <path fill="#232536"
          d="M24 12c-.39 0-.71.31-.71.7v.7h-2.94a2.09 2.09 0 0 0-1.98-1.4c-1.16 0-2.11.94-2.11 2.1 0 1.17.95 2.11 2.11 2.11.92 0 1.69-.59 1.98-1.4h2.94v2.81h-7.16a2.1 2.1 0 0 0-1.98-1.41c-1.16 0-2.15.95-2.15 2.11 0 1.17.99 2.11 2.15 2.11.92 0 1.69-.59 1.98-1.4h7.16v2.11l6.75 5.06c.18.13.29.34.29.56v4.92h.7c1.16 0 2.11-.94 2.11-2.11v-3.51h2.15a.71.71 0 0 0 .59-1.1l-2.13-3.12h-4.83c-1.55 0-2.81-1.26-2.81-2.81s1.26-2.82 2.81-2.82h2.76A9.116 9.116 0 0 0 24 12Z"></path>
      </g>
    </g>
  </symbol>
  <symbol xmlns="http://www.w3.org/2000/svg" fill="none" viewBox="0 0 140 28.355" id="logo">
    <defs>
      <clipPath id="a">
        <rect width="139" height="27.354" fill="#fff" fill-opacity="0" rx="0"
          transform="translate(.5 .5)"></rect>
      </clipPath>
    </defs>
    <rect width="139" height="27.354" fill="none" rx="0" transform="translate(.5 .5)"></rect>
    <g fill="#FFF" clip-path="url(#a)">
      <path
        d="M139.75 21.65v3.47h-2.91c-3.1-.1-4.76-1.78-4.76-4.92v-7.92h-2.03V9.25h2.03V5.84h4.29v3.37h3.28v3.03h-3.28v7.53c0 1.02.21 1.84 1.77 1.84l1.61.04ZM112.96 17.21v-.23c-.05-1.02.11-2.04.46-3 .35-.95.88-1.84 1.57-2.59a7.82 7.82 0 0 1 2.44-1.79c.93-.43 1.93-.67 2.95-.72h.62c4.05 0 7.6 2.36 7.6 7.98v1.19h-11.25c.11 2.59 1.51 4.05 3.87 4.05 2.03 0 2.98-.88 3.25-2.18h4.05c-.5 3.38-3.19 5.26-7.45 5.26-4.68-.04-8.11-3-8.11-7.97Zm11.42-1.87c-.15-2.35-1.34-3.49-3.4-3.49-2.06 0-3.25 1.28-3.55 3.49h6.95ZM95.45 17.21v-.23c-.04-1.02.11-2.03.46-2.99a7.7 7.7 0 0 1 1.56-2.59 7.82 7.82 0 0 1 5.38-2.52h.62c4.05 0 7.61 2.36 7.61 7.98v1.19H99.84c.11 2.59 1.51 4.05 3.87 4.05 2.03 0 2.98-.88 3.25-2.18h4.05c-.5 3.38-3.2 5.26-7.46 5.26-4.67-.04-8.1-3-8.1-7.97Zm11.42-1.87c-.15-2.35-1.33-3.49-3.4-3.49-2.06 0-3.21 1.31-3.54 3.48l6.94.01ZM70.88 9.21h4.54l2.77 10.51 3.04-10.51h3.55l2.74 10.51 2.93-10.51h4.15l-4.93 15.61h-4.25l-2.66-9.8-2.84 9.8h-4.31L70.88 9.21ZM56.46 19.91h4.05c.19 1.41.89 2.22 2.75 2.22 1.67 0 2.44-.63 2.44-1.7 0-1.07-.89-1.53-3.16-1.85-4.15-.62-5.76-1.82-5.76-4.87 0-3.25 2.98-4.86 6.21-4.86 3.46 0 6.07 1.26 6.45 4.84h-4c-.03-.27-.11-.54-.24-.79s-.3-.46-.52-.64c-.21-.18-.46-.31-.73-.39-.27-.08-.54-.11-.82-.08H63c-1.41 0-2.22.65-2.22 1.61 0 .96.75 1.37 3.04 1.7 3.88.59 6.05 1.57 6.05 4.91s-2.46 5.13-6.57 5.13-6.72-1.85-6.84-5.23ZM39.26 9.21h4.29v2.47a5.35 5.35 0 0 1 2.11-2.16 5.4 5.4 0 0 1 2.94-.67c3.04 0 5.25 1.85 5.25 6.08v9.93h-4.24v-9.31c0-2.12-.82-3.13-2.73-3.13-.41-.04-.81.01-1.2.13-.39.12-.75.32-1.06.58-.31.26-.56.59-.75.95-.19.36-.3.75-.33 1.16-.03.18-.03.37 0 .56v9.02h-4.28V9.21ZM30.98 5.28c-.01-.42.1-.85.32-1.21.23-.36.55-.65.94-.83a2.154 2.154 0 0 1 2.38.39c.31.29.53.67.63 1.08.09.42.07.85-.08 1.25-.15.41-.42.75-.77 1-.34.25-.76.39-1.19.41h-.08c-.26.01-.53-.02-.78-.11a1.88 1.88 0 0 1-.68-.4c-.2-.17-.36-.39-.48-.62-.12-.24-.19-.5-.2-.77-.01-.06-.01-.12-.01-.19Zm0 3.93h4.33v15.61H31l-.02-15.61ZM14.65 3.49h13.7v3.78h-8.86v5.64h7.02v3.65h-7.03v8.26h-4.83V3.49ZM6.38 10.47c0 1.34 0 2.97-1.84 3.63 1.89.65 1.84 2.02 1.84 3.46v5.31c0 1.01.41 1.63 1.14 1.78.16.05.33.07.49.07h1.78v3.54H6.86c-3.12 0-4.84-1.77-4.84-5.06v-6.29c-.02-.32-.16-.63-.39-.85-.24-.22-.55-.35-.87-.35H0V12.6h.76c.33-.01.64-.14.88-.37.23-.23.37-.55.38-.88V4.97C2.02 1.74 3.71 0 6.86 0h2.95v3.49H8.04c-.17 0-.34.02-.5.08-.72.18-1.13.78-1.13 1.77l-.03 5.13Z"></path>
    </g>
  </symbol>
</svg>