<svg xmlns="http://www.w3.org/2000/svg" style="height: 0; width: 0; position: absolute;">
  <symbol id="arrow-up" viewBox="0 0 20 20">
    <g class="nc-icon-wrapper">
      <line x1="10" y1="17" x2="10" y2="3" fill="none" stroke="currentColor" stroke-linecap="round"
        stroke-linejoin="round"></line>
      <polyline points="15 8 10 3 5 8" fill="none" stroke="currentColor" stroke-linecap="round"
        stroke-linejoin="round"></polyline>
    </g>
  </symbol>
  <symbol id="twitter-icon" viewBox="0 0 16 17">
    <g class="nc-icon-wrapper">
      <defs stroke="none" fill="none">
        <clipPath id="1732683015842-5101277_a" stroke="none" fill="none">
          <rect rx="0" width="15" height="16" transform="translate(.5 .5)" fill="currentColor"
            fill-opacity="0" stroke="none"></rect>
        </clipPath>
      </defs>
      <rect rx="0" width="15" height="16" transform="translate(.5 .5)" fill="none" stroke="none"></rect>
      <g clip-path="url(#1732683015842-5101277_a)" stroke="none" fill="none">
        <path
          d="M5.03 15.4c6.04 0 9.34-5.31 9.34-9.92 0-.15-.01-.3-.01-.45.64-.5 1.2-1.11 1.64-1.81-.6.29-1.24.47-1.89.55a3.43 3.43 0 0 0 1.44-1.93c-.64.41-1.34.69-2.08.85-.49-.56-1.15-.93-1.86-1.06-.71-.12-1.45.01-2.08.37-.64.36-1.15.94-1.45 1.64-.29.7-.37 1.48-.21 2.23-1.3-.07-2.58-.43-3.74-1.06a9.465 9.465 0 0 1-3.02-2.58C.69 2.99.56 3.9.75 4.77c.19.86.68 1.62 1.38 2.11-.53-.02-1.04-.17-1.49-.43v.04c0 .8.26 1.59.74 2.21a3.28 3.28 0 0 0 1.89 1.21c-.48.14-.99.16-1.48.06.21.69.62 1.3 1.17 1.73.55.44 1.21.68 1.9.69-1.17.97-2.6 1.5-4.08 1.5-.26 0-.53-.02-.78-.05a8.92 8.92 0 0 0 5.03 1.56Z"
          fill="currentColor" stroke="none"></path>
      </g>
    </g>
  </symbol>
  <symbol id="category-business-icon" viewBox="0 0 48 48">
    <g fill="none" class="nc-icon-wrapper" stroke="none">
      <defs>
        <clipPath id="1732683015830-2323765_a">
          <rect rx="0" width="47" height="47" transform="translate(.5 .5)" fill="#fff"
            fill-opacity="0"></rect>
        </clipPath>
      </defs>
      <path
        d="M39 48H9c-4.98 0-9-4.03-9-9V9c0-4.98 4.02-9 9-9h30c4.97 0 9 4.02 9 9v30a9 9 0 0 1-9 9Z"
        fill="#FBF6EA"></path>
      <rect rx="0" width="47" height="47" transform="translate(.5 .5)" fill="none"></rect>
      <g clip-path="url(#1732683015830-2323765_a)">
        <path
          d="m25.03 13.91-11-1.67c-.51-.08-1.03.06-1.42.39-.38.34-.61.83-.61 1.34v21.07c0 .55.44 1 1 1h3.25v-5.25c0-.97.78-1.75 1.75-1.75h2.5c.97 0 1.75.78 1.75 1.75v5.25h4.25v-20.4c0-.86-.63-1.59-1.47-1.73ZM17.5 26.79H16a.749.749 0 1 1 0-1.5h1.5c.41 0 .75.34.75.75s-.34.75-.75.75Zm0-3H16a.749.749 0 1 1 0-1.5h1.5c.41 0 .75.34.75.75s-.34.75-.75.75Zm0-3H16a.749.749 0 1 1 0-1.5h1.5c.41 0 .75.34.75.75s-.34.75-.75.75Zm0-3H16a.749.749 0 1 1 0-1.5h1.5c.41 0 .75.34.75.75s-.34.75-.75.75Zm5 9H21a.749.749 0 1 1 0-1.5h1.5c.41 0 .75.34.75.75s-.34.75-.75.75Zm0-3H21a.749.749 0 1 1 0-1.5h1.5c.41 0 .75.34.75.75s-.34.75-.75.75Zm0-3H21a.749.749 0 1 1 0-1.5h1.5c.41 0 .75.34.75.75s-.34.75-.75.75Zm0-3H21a.749.749 0 1 1 0-1.5h1.5c.41 0 .75.34.75.75s-.34.75-.75.75Z"
          fill="#232536"></path>
        <path
          d="m34.62 22.88-7.12-1.49v14.65h6.75c.96 0 1.75-.78 1.75-1.75v-9.7c0-.82-.57-1.53-1.38-1.71Zm-2.37 10.16h-1.5a.749.749 0 1 1 0-1.5h1.5c.41 0 .75.34.75.75s-.34.75-.75.75Zm0-3h-1.5a.749.749 0 1 1 0-1.5h1.5c.41 0 .75.34.75.75s-.34.75-.75.75Zm0-3h-1.5a.749.749 0 1 1 0-1.5h1.5c.41 0 .75.34.75.75s-.34.75-.75.75Z"
          fill="#FFD050"></path>
      </g>
    </g>
  </symbol>
  <symbol id="category-startup-icon" viewBox="0 0 48 48">
    <g fill="none" class="nc-icon-wrapper" stroke="none">
      <defs>
        <clipPath id="1732683015833-9816351_a">
          <rect rx="0" width="22" height="22" transform="translate(12.5 12.5)" fill="#fff"
            fill-opacity="0"></rect>
        </clipPath>
      </defs>
      <path
        d="M39 48H9c-4.98 0-9-4.03-9-9V9c0-4.98 4.02-9 9-9h30c4.97 0 9 4.02 9 9v30a9 9 0 0 1-9 9Z"
        fill="#FBF6EA"></path>
      <rect rx="0" width="22" height="22" transform="translate(12.5 12.5)" fill="none"></rect>
      <g clip-path="url(#1732683015833-9816351_a)">
        <path
          d="m17.84 18.21-1.99.15c-.55.04-1.04.33-1.35.8l-2.3 3.47c-.23.36-.27.8-.1 1.18.17.39.52.66.94.72l1.82.28c.43-2.26 1.45-4.52 2.98-6.6ZM22.18 32.13l.28 1.82c.07.42.33.77.72.94.16.07.33.11.5.11.24 0 .47-.07.68-.21l3.47-2.3c.47-.3.76-.8.8-1.35l.15-2c-2.08 1.54-4.34 2.56-6.6 2.99ZM21.49 30.86c.07 0 .13 0 .19-.01.95-.16 1.87-.43 2.74-.78l-7.5-7.5c-.35.87-.62 1.79-.78 2.74-.06.37.07.75.34 1.02l4.18 4.18c.22.23.52.35.83.35Z"
          fill="#FFD050"></path>
        <path
          d="M33.16 22.19c1.84-3.55 1.9-7.29 1.81-9.05-.04-.6-.51-1.09-1.12-1.12-.28-.01-.62-.02-1.01-.02-1.96 0-5.07.29-8.04 1.83-2.36 1.22-5.46 3.91-7.28 7.44l.06.06 8.08 8.08.06.06c3.53-1.82 6.22-4.92 7.44-7.28Zm-7.79-5.33a3.356 3.356 0 0 1 4.76 0c.64.63.99 1.48.99 2.38 0 .9-.35 1.75-.99 2.38-.65.66-1.52.99-2.38.99-.86 0-1.73-.33-2.38-.99-.64-.63-.99-1.48-.99-2.38 0-.9.35-1.75.99-2.38Z"
          fill="#232536"></path>
        <path d="M26.32 20.67a2.022 2.022 0 1 0 2.86-2.859 2.022 2.022 0 0 0-2.86 2.859Z"
          fill="#232536"></path>
        <path
          d="M12.68 30.95c.17 0 .35-.07.48-.2l2.2-2.2c.26-.26.26-.69 0-.95a.676.676 0 0 0-.95 0l-2.2 2.2c-.27.26-.27.69 0 .95.13.13.3.2.47.2ZM17.38 29.62a.67.67 0 0 0-.96 0l-4.23 4.22c-.26.27-.26.69 0 .96.13.13.31.2.48.2.17 0 .34-.07.48-.2l4.22-4.23c.27-.26.27-.69.01-.95ZM18.44 31.63l-2.2 2.2c-.27.26-.27.69 0 .95.13.14.3.2.47.2.18 0 .35-.06.48-.2l2.2-2.2c.26-.26.26-.69 0-.95a.676.676 0 0 0-.95 0Z"
          fill="#FFD050"></path>
      </g>
    </g>
  </symbol>
  <symbol id="category-economy-icon" viewBox="0 0 48 48">
    <g fill="none" class="nc-icon-wrapper" stroke="none">
      <defs>
        <clipPath id="1732683015832-9608556_b">
          <rect rx="0" width="21.957" height="23" transform="translate(13.5 12.5)" fill="#fff"
            fill-opacity="0"></rect>
        </clipPath>
        <clipPath id="1732683015832-9608556_a">
          <rect rx="0" width="47" height="47" transform="translate(.5 .5)" fill="#fff"
            fill-opacity="0"></rect>
        </clipPath>
      </defs>
      <path
        d="M39 48H9c-4.98 0-9-4.03-9-9V9c0-4.98 4.02-9 9-9h30c4.97 0 9 4.02 9 9v30a9 9 0 0 1-9 9Z"
        fill="#FBF6EA"></path>
      <rect rx="0" width="47" height="47" transform="translate(.5 .5)" fill="none"></rect>
      <g clip-path="url(#1732683015832-9608556_a)">
        <rect rx="0" width="21.957" height="23" transform="translate(13.5 12.5)" fill="none"></rect>
        <g clip-path="url(#1732683015832-9608556_b)">
          <path
            d="M18.11 27.42h-2.58c-.94 0-1.69.79-1.69 1.77v5.72c0 .6.46 1.09 1.03 1.09h3.89c.57 0 1.04-.49 1.04-1.09v-5.72c0-.98-.76-1.77-1.69-1.77ZM25.69 23.94h-2.58c-.93 0-1.69.8-1.69 1.77v9.2c0 .6.47 1.09 1.04 1.09h3.89c.57 0 1.03-.49 1.03-1.09v-9.2c0-.97-.75-1.77-1.69-1.77ZM33.42 19.98h-2.58c-.93 0-1.69.8-1.69 1.77v13.16c0 .6.46 1.09 1.03 1.09h3.89c.58 0 1.04-.49 1.04-1.09V21.75c0-.97-.76-1.77-1.69-1.77Z"
            fill="#232536"></path>
          <path
            d="M31.36 12.66c-.31-.46-.83-.71-1.37-.66l-4.88.47c-.55.06-1.01.4-1.24.92-.23.52-.17 1.11.14 1.57l.27.41-6.05 4.37-.01.01c-.43.31-.72.79-.8 1.33-.09.54.03 1.09.33 1.54a1.932 1.932 0 0 0 1.61.87c.41 0 .8-.13 1.14-.38l6.06-4.38.28.42c.29.42.74.66 1.23.66h.15c.54-.05 1.01-.4 1.23-.92l2.05-4.65c.23-.52.18-1.11-.14-1.58Z"
            fill="#FFD050"></path>
        </g>
      </g>
    </g>
  </symbol>
  <symbol id="shuttle" viewBox="0 0 24 24">
    <g fill="none" class="nc-icon-wrapper" stroke="none">
      <defs>
        <clipPath id="1732683015842-4079193_a">
          <rect rx="0" width="23" height="23" transform="translate(.5 .5)" fill="#fff"
            fill-opacity="0"></rect>
        </clipPath>
      </defs>
      <rect rx="0" width="23" height="23" transform="translate(.5 .5)" fill="none"></rect>
      <g clip-path="url(#1732683015842-4079193_a)">
        <path
          d="M14.94 9.05c.83.82 2.17.82 2.99 0 .4-.4.62-.93.62-1.5a2.096 2.096 0 0 0-2.11-2.1c-.54 0-1.08.2-1.5.61a2.135 2.135 0 0 0 0 2.99Z"
          fill="#232536"></path>
        <path
          d="m6.1 6.48-2.08.16c-.58.04-1.09.34-1.41.83L.21 11.1c-.24.36-.28.82-.1 1.22.17.41.54.69.97.75l1.91.3c.44-2.36 1.51-4.72 3.11-6.89ZM10.62 21l.29 1.9c.07.44.35.81.75.98.17.08.35.11.53.11.24 0 .49-.07.7-.21l3.63-2.4c.48-.32.79-.83.83-1.41l.16-2.08c-2.17 1.6-4.53 2.67-6.89 3.11ZM9.91 19.68c.06 0 .13 0 .19-.01.99-.17 1.95-.45 2.86-.81l-7.83-7.83c-.36.91-.64 1.87-.81 2.86-.06.39.07.78.35 1.06l4.37 4.37c.23.23.54.36.87.36Z"
          fill="#FFD050"></path>
        <path
          d="M22.08 10.64c1.92-3.71 1.99-7.62 1.89-9.45A1.25 1.25 0 0 0 22.8.02C22.5.01 22.15 0 21.75 0c-2.05 0-5.3.31-8.4 1.91-2.46 1.27-5.69 4.08-7.59 7.76l.06.06 8.44 8.44.06.06c3.68-1.9 6.49-5.13 7.76-7.59Zm-8.13-5.57a3.519 3.519 0 0 1 4.97 0 3.51 3.51 0 0 1 0 4.97c-.68.69-1.59 1.03-2.48 1.03-.9 0-1.8-.34-2.49-1.03a3.51 3.51 0 0 1 0-4.97Z"
          fill="#232536"></path>
        <path
          d="M.71 19.77c.18 0 .36-.07.5-.2l2.29-2.3c.28-.27.28-.72 0-.99a.688.688 0 0 0-.99 0l-2.3 2.29c-.27.28-.27.72 0 1 .14.13.32.2.5.2ZM5.61 18.38a.719.719 0 0 0-1 0L.2 22.79c-.27.28-.27.72 0 1 .14.14.32.2.5.2s.36-.06.5-.2l4.41-4.42c.27-.27.27-.72 0-.99ZM6.72 20.49l-2.3 2.29c-.27.28-.27.72 0 1 .14.13.32.2.5.2s.36-.07.5-.2l2.29-2.3c.28-.27.28-.72 0-.99a.688.688 0 0 0-.99 0Z"
          fill="#FFD050"></path>
      </g>
    </g>
  </symbol>
  <symbol id="logo" viewBox="0 0 140 28.355">
    <g class="nc-icon-wrapper">
      <defs stroke="none" fill="none">
        <clipPath id="1732683015841-1254472_a" stroke="none" fill="none">
          <rect rx="0" width="139" height="27.354" transform="translate(.5 .5)" fill="currentColor"
            fill-opacity="0" stroke="none"></rect>
        </clipPath>
      </defs>
      <rect rx="0" width="139" height="27.354" transform="translate(.5 .5)" fill="none"
        stroke="none"></rect>
      <g clip-path="url(#1732683015841-1254472_a)" fill="currentColor" stroke="none">
        <path
          d="M139.75 21.65v3.47h-2.91c-3.1-.1-4.76-1.78-4.76-4.92v-7.92h-2.03V9.25h2.03V5.84h4.29v3.37h3.28v3.03h-3.28v7.53c0 1.02.21 1.84 1.77 1.84l1.61.04ZM112.96 17.21v-.23c-.05-1.02.11-2.04.46-3 .35-.95.88-1.84 1.57-2.59a7.82 7.82 0 0 1 2.44-1.79c.93-.43 1.93-.67 2.95-.72h.62c4.05 0 7.6 2.36 7.6 7.98v1.19h-11.25c.11 2.59 1.51 4.05 3.87 4.05 2.03 0 2.98-.88 3.25-2.18h4.05c-.5 3.38-3.19 5.26-7.45 5.26-4.68-.04-8.11-3-8.11-7.97Zm11.42-1.87c-.15-2.35-1.34-3.49-3.4-3.49-2.06 0-3.25 1.28-3.55 3.49h6.95ZM95.45 17.21v-.23c-.04-1.02.11-2.03.46-2.99a7.7 7.7 0 0 1 1.56-2.59 7.82 7.82 0 0 1 5.38-2.52h.62c4.05 0 7.61 2.36 7.61 7.98v1.19H99.84c.11 2.59 1.51 4.05 3.87 4.05 2.03 0 2.98-.88 3.25-2.18h4.05c-.5 3.38-3.2 5.26-7.46 5.26-4.67-.04-8.1-3-8.1-7.97Zm11.42-1.87c-.15-2.35-1.33-3.49-3.4-3.49-2.06 0-3.21 1.31-3.54 3.48l6.94.01ZM70.88 9.21h4.54l2.77 10.51 3.04-10.51h3.55l2.74 10.51 2.93-10.51h4.15l-4.93 15.61h-4.25l-2.66-9.8-2.84 9.8h-4.31L70.88 9.21ZM56.46 19.91h4.05c.19 1.41.89 2.22 2.75 2.22 1.67 0 2.44-.63 2.44-1.7 0-1.07-.89-1.53-3.16-1.85-4.15-.62-5.76-1.82-5.76-4.87 0-3.25 2.98-4.86 6.21-4.86 3.46 0 6.07 1.26 6.45 4.84h-4c-.03-.27-.11-.54-.24-.79s-.3-.46-.52-.64c-.21-.18-.46-.31-.73-.39-.27-.08-.54-.11-.82-.08H63c-1.41 0-2.22.65-2.22 1.61 0 .96.75 1.37 3.04 1.7 3.88.59 6.05 1.57 6.05 4.91s-2.46 5.13-6.57 5.13-6.72-1.85-6.84-5.23ZM39.26 9.21h4.29v2.47a5.35 5.35 0 0 1 2.11-2.16 5.4 5.4 0 0 1 2.94-.67c3.04 0 5.25 1.85 5.25 6.08v9.93h-4.24v-9.31c0-2.12-.82-3.13-2.73-3.13-.41-.04-.81.01-1.2.13-.39.12-.75.32-1.06.58-.31.26-.56.59-.75.95-.19.36-.3.75-.33 1.16-.03.18-.03.37 0 .56v9.02h-4.28V9.21ZM30.98 5.28c-.01-.42.1-.85.32-1.21.23-.36.55-.65.94-.83a2.154 2.154 0 0 1 2.38.39c.31.29.53.67.63 1.08.09.42.07.85-.08 1.25-.15.41-.42.75-.77 1-.34.25-.76.39-1.19.41h-.08c-.26.01-.53-.02-.78-.11a1.88 1.88 0 0 1-.68-.4c-.2-.17-.36-.39-.48-.62-.12-.24-.19-.5-.2-.77-.01-.06-.01-.12-.01-.19Zm0 3.93h4.33v15.61H31l-.02-15.61ZM14.65 3.49h13.7v3.78h-8.86v5.64h7.02v3.65h-7.03v8.26h-4.83V3.49ZM6.38 10.47c0 1.34 0 2.97-1.84 3.63 1.89.65 1.84 2.02 1.84 3.46v5.31c0 1.01.41 1.63 1.14 1.78.16.05.33.07.49.07h1.78v3.54H6.86c-3.12 0-4.84-1.77-4.84-5.06v-6.29c-.02-.32-.16-.63-.39-.85-.24-.22-.55-.35-.87-.35H0V12.6h.76c.33-.01.64-.14.88-.37.23-.23.37-.55.38-.88V4.97C2.02 1.74 3.71 0 6.86 0h2.95v3.49H8.04c-.17 0-.34.02-.5.08-.72.18-1.13.78-1.13 1.77l-.03 5.13Z"
          stroke="none"></path>
      </g>
    </g>
  </symbol>
  <symbol id="linkedin-icon" viewBox="0 0 16 16">
    <g class="nc-icon-wrapper">
      <defs stroke="none" fill="none">
        <clipPath id="1732683015840-1355199_a" stroke="none" fill="none">
          <rect rx="0" width="15" height="15" transform="translate(.5 .5)" fill="currentColor"
            fill-opacity="0" stroke="none"></rect>
        </clipPath>
      </defs>
      <rect rx="0" width="15" height="15" transform="translate(.5 .5)" fill="none" stroke="none"></rect>
      <g clip-path="url(#1732683015840-1355199_a)" stroke="none" fill="none">
        <path
          d="M14.81 0H1.18C.52 0 0 .51 0 1.15v13.69C0 15.48.52 16 1.18 16h13.63c.65 0 1.19-.52 1.19-1.16V1.15C16 .51 15.46 0 14.81 0ZM4.74 13.63H2.37V5.99h2.37v7.64ZM3.55 4.95c-.76 0-1.37-.61-1.37-1.37a1.374 1.374 0 1 1 1.37 1.37Zm10.08 8.68h-2.37V9.92c0-.89-.02-2.03-1.24-2.03-1.23 0-1.42.97-1.42 1.96v3.78H6.23V5.99h2.28v1.05h.03c.31-.6 1.09-1.24 2.24-1.24 2.41 0 2.85 1.58 2.85 3.64v4.19Z"
          fill="currentColor" stroke="none"></path>
      </g>
    </g>
  </symbol>
  <symbol id="instagram-icon" viewBox="0 0 16 16">
    <g class="nc-icon-wrapper">
      <defs stroke="none" fill="none">
        <clipPath id="1732683015840-1219797_a" stroke="none" fill="none">
          <rect rx="0" width="15" height="15" transform="translate(.5 .5)" fill="currentColor"
            fill-opacity="0" stroke="none"></rect>
        </clipPath>
      </defs>
      <rect rx="0" width="15" height="15" transform="translate(.5 .5)" fill="none" stroke="none"></rect>
      <g clip-path="url(#1732683015840-1219797_a)" fill="currentColor" stroke="none">
        <path
          d="M8 1.44c2.13 0 2.39.01 3.23.04.78.04 1.2.17 1.48.28.37.14.64.32.92.59.28.29.45.55.6.92.1.28.24.71.27 1.49.04.84.05 1.09.05 3.23 0 2.14-.01 2.39-.05 3.23-.03.78-.17 1.2-.27 1.48-.15.38-.32.65-.6.92-.28.28-.55.46-.92.6-.28.11-.71.24-1.48.28-.85.03-1.1.04-3.23.04-2.14 0-2.4-.01-3.24-.04-.78-.04-1.2-.17-1.48-.28-.37-.14-.64-.32-.92-.6a2.49 2.49 0 0 1-.6-.92c-.1-.28-.24-.7-.27-1.48-.04-.84-.05-1.1-.05-3.23 0-2.14.01-2.39.05-3.23.03-.78.17-1.21.27-1.49.15-.37.32-.64.6-.92.28-.28.55-.45.92-.59.28-.11.71-.24 1.48-.28.84-.03 1.1-.04 3.24-.04ZM8 0C5.82 0 5.55 0 4.7.04c-.85.04-1.44.18-1.94.37-.53.21-.98.48-1.42.93-.45.44-.72.89-.93 1.41-.19.51-.33 1.1-.37 1.95C0 5.55 0 5.82 0 8c0 2.17 0 2.44.04 3.29.04.85.18 1.44.37 1.94.21.53.48.98.93 1.42.44.45.89.72 1.41.92.51.2 1.09.34 1.94.38.86.03 1.13.04 3.3.04s2.45-.01 3.3-.04c.85-.04 1.43-.18 1.94-.38.52-.2.97-.47 1.42-.92.44-.44.71-.89.92-1.41.19-.51.33-1.1.37-1.95.04-.85.05-1.12.05-3.29s-.01-2.45-.05-3.3c-.04-.85-.18-1.43-.37-1.94-.2-.53-.47-.98-.92-1.42-.44-.45-.89-.72-1.41-.92-.51-.2-1.09-.34-1.94-.38C10.44 0 10.17 0 8 0Z"
          stroke="none"></path>
        <path
          d="M8 3.89A4.11 4.11 0 0 0 3.89 8 4.106 4.106 0 1 0 8 3.89Zm0 6.77c-1.48 0-2.67-1.19-2.67-2.66 0-1.48 1.19-2.67 2.67-2.67 1.47 0 2.66 1.19 2.66 2.67 0 1.47-1.19 2.66-2.66 2.66ZM13.23 3.72a.96.96 0 1 1-.96-.96c.53 0 .96.44.96.96Z"
          stroke="none"></path>
      </g>
    </g>
  </symbol>
  <symbol id="facebook-icon" viewBox="0 0 16 16">
    <g class="nc-icon-wrapper">
      <defs stroke="none" fill="none">
        <clipPath id="1732683015839-993067_a" stroke="none" fill="none">
          <rect rx="0" width="15" height="15" transform="translate(.5 .5)" fill="currentColor"
            fill-opacity="0" stroke="none"></rect>
        </clipPath>
      </defs>
      <rect rx="0" width="15" height="15" transform="translate(.5 .5)" fill="none" stroke="none"></rect>
      <g clip-path="url(#1732683015839-993067_a)" stroke="none" fill="none">
        <path
          d="M16 8c0-4.42-3.59-8-8-8-4.42 0-8 3.58-8 8 0 3.99 2.92 7.3 6.75 7.9v-5.59H4.71V8h2.04V6.23c0-2 1.19-3.11 3.02-3.11.87 0 1.79.16 1.79.16v1.97h-1.01c-.99 0-1.3.61-1.3 1.25V8h2.21l-.35 2.31H9.25v5.59C13.07 15.3 16 11.99 16 8Z"
          fill="currentColor" stroke="none"></path>
      </g>
    </g>
  </symbol>
  <symbol id="company-logo-5" viewBox="0 0 136 32">
    <g class="nc-icon-wrapper">
      <defs stroke="none" fill="none">
        <clipPath id="1732683015839-9508210_a" stroke="none" fill="none">
          <rect rx="0" width="135" height="31" transform="translate(.5 .5)" fill="currentColor"
            fill-opacity="0" stroke="none"></rect>
        </clipPath>
      </defs>
      <rect rx="0" width="135" height="31" transform="translate(.5 .5)" fill="none" stroke="none"></rect>
      <g clip-path="url(#1732683015839-9508210_a)" fill="currentColor" stroke="none">
        <path
          d="M39 9.89h3.41v13.87H39V9.89Zm4.78 8.66c0-3.44 2.13-5.5 5.32-5.5 3.2 0 5.33 2.06 5.33 5.5 0 3.43-2.05 5.51-5.33 5.51-3.27 0-5.32-2-5.32-5.51Zm7.26 0c0-1.89-.73-3-1.9-3s-1.9 1.07-1.9 3 .73 2.98 1.9 2.98 1.93-1.05 1.93-2.97l-.03-.01Zm4.76 5.93h3.3c.15.35.41.65.74.84.34.2.73.27 1.11.22 1.31 0 1.99-.7 1.99-1.75v-1.92h.01c-.28.6-.73 1.1-1.3 1.43-.57.34-1.23.49-1.89.44-2.51 0-4.17-1.91-4.17-5.19 0-3.29 1.59-5.34 4.26-5.34.68-.03 1.35.14 1.92.5.57.36 1.02.89 1.28 1.52h-.1V13.3h3.39v10.39c0 2.5-2.21 4.07-5.47 4.07-2.96-.01-4.86-1.36-5.05-3.27l-.02-.01Zm7.15-5.93c0-1.68-.76-2.73-1.98-2.73-1.21 0-1.96 1.06-1.96 2.73 0 1.66.74 2.64 1.96 2.64 1.23 0 1.98-.9 1.98-2.64Zm4.74 0c0-3.44 2.14-5.5 5.33-5.5 3.2 0 5.33 2.06 5.33 5.5 0 3.43-2.07 5.51-5.33 5.51-3.26 0-5.3-2-5.3-5.51h-.03Zm7.27 0c0-1.89-.75-3-1.91-3s-1.89 1.07-1.89 3 .72 2.98 1.89 2.98c1.18 0 1.93-1.05 1.93-2.97l-.02-.01Zm4.77-7.78c-.01-.35.08-.69.26-.99.18-.3.45-.53.77-.68.32-.14.67-.19 1.01-.13.35.06.66.22.92.46.25.24.42.55.5.9.07.34.04.69-.09 1.02-.13.32-.35.6-.64.79-.29.2-.63.3-.98.3-.22.01-.44-.03-.65-.11-.21-.08-.4-.2-.56-.36-.16-.15-.29-.34-.38-.54a1.85 1.85 0 0 1-.14-.65l-.02-.01Zm0 2.52h3.46v10.52h-3.4l-.06-10.52Zm15.92 5.26c0 3.42-1.54 5.4-4.15 5.4-.66.05-1.33-.12-1.9-.47A3.26 3.26 0 0 1 88.31 22h-.06v5.19h-3.42V13.32h3.39v1.88h.07c.26-.63.7-1.16 1.28-1.52.57-.37 1.24-.54 1.91-.51 2.69-.02 4.23 1.95 4.23 5.39l-.06-.01Zm-3.49 0c0-1.67-.77-2.75-1.98-2.75-1.2 0-1.96 1.07-1.97 2.75-.01 1.67.77 2.73 1.97 2.73 1.21 0 2.05-.99 2.05-2.72l-.07-.01Zm9.33-5.51c2.86 0 4.64 1.36 4.66 3.53h-3.12c0-.75-.63-1.22-1.56-1.22-.94 0-1.39.36-1.39.9 0 .55.39.72 1.18.88l2.2.45c2.13.44 2.98 1.3 2.98 2.89 0 2.13-1.97 3.58-4.9 3.58-2.93 0-4.84-1.41-4.97-3.55h3.31c.09.78.71 1.24 1.71 1.24 1.01 0 1.47-.32 1.47-.89 0-.56-.32-.66-1.14-.83l-1.98-.42c-2.05-.44-3.13-1.51-3.13-3.12.06-2.09 1.85-3.43 4.74-3.43l-.06-.01Zm16.4 10.75h-3.31v-1.97h-.06c-.19.66-.59 1.23-1.15 1.63-.55.4-1.23.6-1.91.56-.52.01-1.03-.08-1.51-.27-.47-.2-.9-.49-1.26-.87-.35-.37-.62-.82-.8-1.3-.17-.49-.23-1.01-.19-1.52V13.3h3.42v6.01c0 1.24.65 1.91 1.71 1.91.25 0 .5-.05.73-.16.22-.1.42-.26.59-.45.16-.19.28-.41.35-.65.07-.24.08-.49.05-.74V13.3h3.41l-.07 10.49Zm1.65-10.5h3.33v2.02h.07c.19-.65.58-1.22 1.12-1.62.54-.4 1.2-.61 1.87-.59.68-.06 1.36.13 1.9.54.54.42.9 1.02 1.02 1.68h.15c.22-.67.64-1.25 1.22-1.65.58-.41 1.28-.61 1.98-.57.47-.02.93.06 1.37.23.43.18.82.44 1.15.78.32.34.57.74.73 1.18.16.44.22.91.19 1.38v7.14h-3.44v-6.27c0-1.06-.5-1.66-1.47-1.66-.21 0-.43.04-.63.13a1.467 1.467 0 0 0-.82.93c-.06.2-.08.42-.05.64v6.23h-3.26v-6.3c0-1.07-.53-1.63-1.46-1.63a1.514 1.514 0 0 0-1.15.51c-.15.16-.26.36-.32.56-.06.21-.08.43-.06.65v6.21h-3.41l-.03-10.52ZM32.23 10.8c0-2.12-.64-4.2-1.84-5.95C29.2 3.1 27.5 1.75 25.52.98c-1.97-.77-4.13-.93-6.2-.44-2.07.48-3.94 1.57-5.37 3.14H.66v28.09h28.07V18.64a10.4 10.4 0 0 0 2.58-3.54c.61-1.36.92-2.82.92-4.3Zm-5.4 0c0 1.02-.3 2.01-.86 2.86-.56.85-1.36 1.51-2.3 1.9-.94.39-1.97.49-2.97.3-1-.2-1.91-.69-2.63-1.41a5.137 5.137 0 0 1-1.12-5.6c.39-.94 1.05-1.75 1.89-2.31a5.122 5.122 0 0 1 6.48.63 5.15 5.15 0 0 1 1.51 3.63Zm-3.5 15.56H6.06V9.08h5.26c-.1.57-.16 1.15-.16 1.72 0 2.8 1.11 5.48 3.09 7.46 1.97 1.98 4.65 3.09 7.44 3.09.55 0 1.1-.05 1.64-.14v5.15Z"
          stroke="none"></path>
      </g>
    </g>
  </symbol>
  <symbol id="company-logo-4" viewBox="0 0 153 32">
    <g class="nc-icon-wrapper">
      <defs stroke="none" fill="none">
        <clipPath id="1732683015838-4017840_a" stroke="none" fill="none">
          <rect rx="0" width="152" height="31" transform="translate(.5 .5)" fill="currentColor"
            fill-opacity="0" stroke="none"></rect>
        </clipPath>
      </defs>
      <rect rx="0" width="152" height="31" transform="translate(.5 .5)" fill="none" stroke="none"></rect>
      <g clip-path="url(#1732683015838-4017840_a)" fill="currentColor" stroke="none">
        <path
          d="M49.37 25.49a3.49 3.49 0 0 1-2.17-.62c-.26-.2-.47-.46-.62-.75-.14-.3-.21-.62-.19-.95V11.16c-.01-.05 0-.1.01-.15.02-.05.05-.09.08-.13.04-.03.08-.06.13-.08.05-.01.1-.02.15-.01h2.18c.25 0 .36.13.36.37v11.08c0 .49.22.74.68.74.19 0 .38-.02.57-.07.26 0 .4.08.41.31l.2 1.62c0 .05 0 .1-.01.14a.313.313 0 0 1-.17.22.23.23 0 0 1-.14.04c-.47.16-.97.24-1.47.25ZM61.62 24.1c-1.1.91-2.47 1.4-3.89 1.4s-2.8-.49-3.89-1.4a5.18 5.18 0 0 1 0-7.29 6.134 6.134 0 0 1 7.78 0c.94.98 1.46 2.28 1.46 3.64 0 1.36-.52 2.66-1.46 3.64v.01Zm-5.73-1.71a2.733 2.733 0 0 0 3.7 0c.46-.53.72-1.2.72-1.9s-.26-1.38-.72-1.91c-.5-.46-1.16-.71-1.85-.71-.68 0-1.34.25-1.85.71-.46.53-.72 1.21-.72 1.91s.26 1.37.72 1.9ZM75.07 15.75c.25 0 .36.13.36.37v9.29c.03.63-.09 1.25-.34 1.83-.25.57-.62 1.08-1.1 1.5a5.435 5.435 0 0 1-3.77 1.29c-1.24.05-2.47-.29-3.51-.97-.45-.29-.83-.67-1.12-1.12a3.84 3.84 0 0 1-.58-1.47c0-.26 0-.37.35-.37h2.18c.09 0 .18.03.26.08.07.05.13.13.17.21.14.4.42.72.79.92.45.23.95.35 1.45.34.3.02.61-.03.9-.13.28-.1.55-.26.77-.47.21-.21.37-.46.47-.74.11-.28.15-.58.14-.87v-.82c-.78.57-1.73.87-2.7.84-.67.03-1.35-.09-1.98-.33-.63-.24-1.21-.61-1.7-1.08a5.204 5.204 0 0 1-1.45-3.6c0-1.34.52-2.64 1.45-3.6.49-.47 1.07-.83 1.7-1.07.63-.24 1.31-.35 1.98-.33 1-.03 1.97.29 2.77.89v-.2c-.01-.05 0-.1.01-.15.02-.05.04-.09.08-.13.03-.03.08-.06.12-.08.05-.02.1-.02.15-.02l2.15-.01Zm-5.03 7.41c.34.01.67-.06.97-.19.31-.13.58-.33.81-.58.43-.55.66-1.24.66-1.94s-.23-1.39-.66-1.94c-.23-.25-.5-.44-.8-.57-.31-.13-.63-.2-.97-.18-.33-.02-.67.05-.98.18-.31.13-.59.33-.82.58-.48.53-.73 1.23-.7 1.94-.02.71.22 1.4.69 1.93.23.25.51.45.82.58.31.13.64.2.98.19ZM86.62 24.1c-1.1.9-2.47 1.39-3.89 1.39s-2.8-.49-3.89-1.39a5.28 5.28 0 0 1-1.47-3.65c0-1.35.53-2.66 1.47-3.64a6.134 6.134 0 0 1 7.78 0c.94.98 1.46 2.28 1.46 3.64 0 1.36-.52 2.66-1.46 3.64v.01Zm-5.75-1.71c.25.24.54.42.87.54.32.13.66.18 1 .17.34.01.68-.05 1-.17.32-.12.61-.3.85-.54.46-.53.7-1.21.7-1.9 0-.7-.24-1.37-.7-1.91-.24-.23-.53-.41-.85-.54-.32-.12-.66-.18-1-.17-.34-.01-.68.05-1 .17-.33.12-.62.31-.87.54-.45.54-.7 1.21-.7 1.91 0 .69.25 1.37.7 1.9ZM92.76 13.55a1.904 1.904 0 0 1-2.48 0c-.15-.15-.28-.33-.36-.52a1.5 1.5 0 0 1-.13-.62c0-.22.04-.43.13-.62.08-.2.21-.38.36-.52a1.904 1.904 0 0 1 2.48 0c.15.14.28.32.36.52.09.19.13.4.13.62 0 .21-.04.42-.13.62-.08.19-.21.37-.36.52Zm.27 11.94a3.46 3.46 0 0 1-2.16-.62c-.26-.2-.47-.46-.61-.75-.14-.3-.21-.62-.2-.95v-7.05c0-.05 0-.1.02-.15.02-.05.04-.09.08-.13.04-.03.08-.06.13-.08.05-.01.1-.02.15-.01h2.18c.24 0 .36.13.36.37v6.12c0 .49.22.74.66.74.2 0 .39-.02.58-.07.26 0 .41.08.42.31l.19 1.62a.33.33 0 0 1-.06.27c-.03.04-.07.07-.11.09a.23.23 0 0 1-.14.04c-.48.16-.98.24-1.49.25ZM102.85 15.44a5.041 5.041 0 0 1 3.7 1.4c.92.98 1.43 2.27 1.43 3.62 0 1.34-.51 2.63-1.43 3.62-.49.47-1.07.84-1.71 1.08-.63.24-1.31.35-1.99.33a4.49 4.49 0 0 1-2.71-.84v4.67c0 .25-.13.36-.38.36h-2.18c-.05.01-.1.01-.15-.01a.292.292 0 0 1-.12-.07.258.258 0 0 1-.08-.13.257.257 0 0 1-.01-.15V18.7c.02-.1.01-.21-.03-.31a.69.69 0 0 0-.43-.43c-.1-.03-.2-.04-.3-.02h-.43c-.29 0-.43-.11-.43-.31V16.1c-.01-.1.02-.19.07-.27a.46.46 0 0 1 .23-.16c.45-.16.92-.24 1.4-.23.47-.05.95.06 1.37.29.42.23.76.58.97 1 .42-.42.92-.75 1.47-.98.55-.22 1.14-.33 1.74-.31Zm-2.03 6.95a2.47 2.47 0 0 0 3.58 0c.49-.54.74-1.25.71-1.98.04-.73-.22-1.44-.71-1.98-.23-.24-.51-.43-.82-.57-.3-.13-.63-.19-.97-.19-.33 0-.66.06-.97.19-.31.14-.59.33-.82.57-.47.55-.71 1.26-.68 1.98-.03.72.21 1.43.68 1.98ZM114.09 25.49c-1.16.05-2.31-.23-3.33-.81-.41-.24-.75-.57-1.01-.97s-.43-.85-.49-1.32c0-.26.09-.39.37-.39h1.91c.09.01.18.04.25.09.08.05.14.12.18.2.27.7.98 1.05 2.12 1.05.4.02.8-.06 1.16-.24a.75.75 0 0 0 .31-.25c.07-.11.12-.24.13-.38 0-.34-.21-.57-.62-.73-.5-.16-1.01-.27-1.52-.32-.61-.07-1.22-.18-1.81-.32-.59-.13-1.11-.44-1.52-.87-.24-.3-.42-.64-.52-1-.1-.37-.13-.75-.08-1.13.06-.38.19-.74.38-1.06.2-.33.46-.61.78-.83a5.32 5.32 0 0 1 3.13-.82c1.07-.04 2.13.22 3.06.76.38.21.7.5.94.85.25.36.42.76.49 1.18 0 .26-.12.39-.35.39h-1.92a.322.322 0 0 1-.23-.06.375.375 0 0 1-.16-.17c-.13-.31-.37-.55-.67-.69-.35-.18-.73-.27-1.12-.26-.38-.02-.76.06-1.1.22-.12.05-.23.13-.3.24-.07.1-.11.23-.12.36.01.18.08.35.19.48.11.14.26.24.44.28.49.19 1.01.32 1.54.39.61.08 1.21.19 1.8.34.58.13 1.11.43 1.52.87.22.23.38.51.49.82.11.3.16.63.14.95.01.45-.09.89-.3 1.29-.21.39-.52.72-.9.96-.97.62-2.11.94-3.26.9ZM132.25 24.84c.01.05.01.09 0 .14-.01.04-.03.09-.06.12-.03.04-.07.07-.1.1-.05.02-.09.04-.14.04-.47.16-.96.24-1.46.25-.49.05-.99-.03-1.44-.23-.46-.19-.85-.5-1.15-.9-.92.79-2.1 1.19-3.31 1.13a4.16 4.16 0 0 1-1.64-.27c-.52-.2-1-.51-1.39-.91-.39-.42-.7-.91-.89-1.44-.2-.54-.29-1.11-.26-1.68v-5.07c0-.24.11-.37.36-.37h2.18c.24 0 .36.13.36.37v4.68c-.02.58.18 1.15.56 1.59.19.2.42.36.68.47.25.1.53.15.81.14.28.01.57-.03.83-.13.27-.1.51-.25.72-.44.2-.2.35-.44.45-.71.1-.26.15-.55.14-.83v-4.77c0-.24.11-.37.36-.37h2.2c.25 0 .36.13.36.37v6.1c0 .51.22.76.65.76.2 0 .41-.02.6-.07.05-.01.1-.02.15-.01.05.01.1.03.14.06a.4.4 0 0 1 .1.12c.02.04.04.09.04.14l.15 1.62ZM152.85 24.84a.33.33 0 0 1-.06.27c-.03.04-.06.07-.11.09-.04.03-.08.04-.13.04-.48.16-.99.24-1.49.25a3.49 3.49 0 0 1-2.17-.62 2.072 2.072 0 0 1-.87-1.7v-3.04a2.29 2.29 0 0 0-.54-1.6c-.18-.2-.41-.36-.66-.46-.25-.11-.52-.16-.79-.15-.25-.01-.49.04-.71.14-.23.1-.43.25-.59.43-.34.44-.51.98-.49 1.53v4.78c0 .25-.12.38-.36.38h-2.19c-.05 0-.1 0-.16-.02-.04-.02-.09-.04-.12-.08a.258.258 0 0 1-.08-.13c-.02-.05-.03-.1-.02-.15v-4.67c.03-.58-.15-1.14-.5-1.6-.16-.19-.36-.34-.58-.45-.23-.1-.47-.16-.72-.16-.26-.01-.53.04-.77.14-.25.1-.47.24-.66.43-.37.42-.56.97-.53 1.53v4.78c.01.05 0 .1-.01.15-.02.05-.05.09-.08.13-.04.04-.08.06-.13.08-.05.02-.1.02-.15.02h-2.12c-.24 0-.36-.13-.36-.38v-6.1c.02-.1.01-.21-.03-.31a.544.544 0 0 0-.16-.26.654.654 0 0 0-.26-.17.662.662 0 0 0-.31-.02h-.43c-.29 0-.43-.11-.43-.31V16.1c-.01-.1.02-.19.07-.27a.46.46 0 0 1 .23-.16c.45-.16.92-.24 1.4-.23.46-.04.92.05 1.32.26.41.21.75.53.99.93.43-.42.95-.73 1.52-.94.56-.2 1.17-.29 1.77-.25.58-.03 1.16.08 1.7.32.53.24 1 .6 1.37 1.05.43-.47.96-.83 1.54-1.07.59-.24 1.22-.34 1.86-.3.56-.03 1.13.06 1.65.27.53.2 1.01.51 1.42.91.39.41.7.9.89 1.44.2.54.29 1.11.26 1.68v2.5c0 .49.22.74.63.74.21 0 .41-.02.6-.07.27 0 .41.1.43.31l.12 1.62ZM.87 14.06A17.742 17.742 0 0 1 18.09.62c3.96 0 7.8 1.32 10.92 3.76 3.12 2.43 5.34 5.84 6.3 9.68h-1.56c-2.62-.03-5.19.75-7.35 2.25-.12.09-.25.17-.39.24h-.18c-.13-.07-.26-.15-.39-.24a13.1 13.1 0 0 0-7.35-2.25c-2.62 0-5.18.78-7.36 2.25-.12.09-.25.17-.39.24h-.18c-.13-.07-.26-.15-.39-.24-2.15-1.5-4.72-2.28-7.35-2.25H.87Zm30.08 8.13c.8-.63 1.79-.95 2.8-.92h2.09v-4.16h-2.09c-1.78-.02-3.52.53-4.96 1.58a4.719 4.719 0 0 1-5.6 0 8.824 8.824 0 0 0-5.04-1.58c-1.8 0-3.56.55-5.03 1.58a4.719 4.719 0 0 1-5.6 0 8.264 8.264 0 0 0-5.03-1.58H.34v4.16h2.08c1.01-.03 2 .29 2.8.92a8.868 8.868 0 0 0 5.03 1.58c1.8 0 3.56-.56 5.03-1.58.8-.62 1.79-.95 2.8-.92 1.01-.03 2 .29 2.8.92a8.858 8.858 0 0 0 10.07 0Zm0 7.43c.8-.62 1.79-.95 2.8-.92h2.09v-4.16h-2.09c-1.78-.02-3.52.54-4.96 1.58a4.719 4.719 0 0 1-5.6 0 8.824 8.824 0 0 0-5.04-1.58c-1.8 0-3.56.55-5.03 1.58a4.719 4.719 0 0 1-5.6 0 8.33 8.33 0 0 0-5.03-1.58H.34v4.16h2.08c1.01-.03 2 .3 2.8.92a8.793 8.793 0 0 0 5.03 1.58c1.8 0 3.56-.55 5.03-1.58.8-.62 1.79-.94 2.8-.92 1.01-.03 2 .3 2.8.92a8.793 8.793 0 0 0 5.03 1.58 8.8 8.8 0 0 0 5.04-1.58Z"
          stroke="none"></path>
      </g>
    </g>
  </symbol>
  <symbol id="company-logo-3" viewBox="0 0 135 32">
    <g class="nc-icon-wrapper">
      <defs stroke="none" fill="none">
        <clipPath id="1732683015837-8691640_a" stroke="none" fill="none">
          <rect rx="0" width="134" height="31" transform="translate(.5 .5)" fill="currentColor"
            fill-opacity="0" stroke="none"></rect>
        </clipPath>
      </defs>
      <rect rx="0" width="134" height="31" transform="translate(.5 .5)" fill="none" stroke="none"></rect>
      <g clip-path="url(#1732683015837-8691640_a)" fill="currentColor" stroke="none">
        <path
          d="M39.3 9.34h3.38V23H39.3V9.34Zm4.72 8.5c0-3.37 2.07-5.39 5.27-5.39 3.21 0 5.28 2.02 5.28 5.39 0 3.38-2.03 5.41-5.28 5.41-3.24 0-5.27-1.97-5.27-5.41Zm7.16 0c0-1.85-.74-2.95-1.89-2.95-1.14 0-1.87 1.13-1.87 2.95 0 1.83.71 2.93 1.87 2.93 1.17 0 1.89-1.04 1.89-2.92v-.01Zm4.66 5.82h3.25c.15.35.41.63.74.81.33.19.71.26 1.08.21 1.29 0 1.97-.7 1.97-1.71v-1.9h-.07a3.22 3.22 0 0 1-1.26 1.4c-.55.33-1.18.49-1.82.45-2.47 0-4.1-1.88-4.1-5.11 0-3.23 1.55-5.27 4.15-5.27.65-.03 1.31.15 1.86.5.56.36.99.87 1.25 1.48v-1.88h3.38v10.25c0 2.46-2.18 3.99-5.39 3.99-2.99 0-4.85-1.34-5.04-3.2v-.02Zm7.05-5.83c0-1.64-.76-2.68-1.95-2.68-1.2 0-1.93 1.03-1.93 2.68 0 1.66.72 2.59 1.93 2.59 1.2 0 1.95-.91 1.95-2.58v-.01Zm4.65 0c0-3.38 2.08-5.39 5.28-5.39s5.28 2.01 5.28 5.39-2.03 5.41-5.28 5.41c-3.26 0-5.28-1.96-5.28-5.4v-.01Zm7.16 0c0-1.86-.73-2.95-1.88-2.95S71 16.02 71 17.85c0 1.84.71 2.93 1.86 2.93 1.15 0 1.84-1.05 1.84-2.93v-.02Zm4.69-7.64c-.01-.34.08-.68.26-.97.18-.29.45-.52.76-.65.31-.14.66-.18 1-.13.33.06.65.22.89.46.25.23.42.53.49.87.08.33.05.68-.07 1-.13.31-.34.59-.62.78-.28.2-.61.31-.95.31-.23.02-.46-.01-.67-.09-.22-.07-.41-.19-.58-.35a1.642 1.642 0 0 1-.51-1.21v-.02Zm0 2.47h3.38V23h-3.38V12.66Zm15.65 5.17c0 3.38-1.5 5.31-4.07 5.31-.65.04-1.31-.12-1.88-.47-.56-.34-1.01-.85-1.27-1.45h-.07v5.09h-3.38V12.64h3.38v1.85h.07c.25-.62.69-1.14 1.25-1.49.56-.36 1.22-.54 1.88-.51 2.59.05 4.14 1.99 4.14 5.36l-.05-.02Zm-3.38 0c0-1.64-.75-2.69-1.94-2.69-1.18 0-1.94 1.06-1.95 2.69-.01 1.63.77 2.68 1.95 2.68 1.19 0 1.94-1.02 1.94-2.66v-.02Zm9.19-5.4c2.8 0 4.5 1.33 4.58 3.45h-3.07c0-.73-.61-1.19-1.55-1.19-.93 0-1.35.36-1.35.89s.37.7 1.13.86l2.16.43c2.06.44 2.94 1.28 2.94 2.84 0 2.14-1.95 3.52-4.82 3.52s-4.76-1.38-4.9-3.48h3.25c.11.76.71 1.21 1.71 1.21.99 0 1.44-.32 1.44-.86 0-.55-.32-.66-1.13-.83l-1.95-.41c-2.02-.42-3.08-1.49-3.08-3.07.03-2.02 1.84-3.34 4.64-3.34v-.02Zm16.12 10.55h-3.25v-1.93h-.07a2.923 2.923 0 0 1-3 2.15c-.51.03-1.03-.05-1.51-.24-.47-.18-.91-.47-1.27-.84s-.63-.81-.81-1.29c-.17-.48-.24-1-.2-1.51v-6.68h3.39v5.9c0 1.23.63 1.88 1.68 1.88.24 0 .48-.05.71-.15a1.756 1.756 0 0 0 .94-1.07c.07-.24.09-.48.06-.73v-5.83h3.38l-.05 10.34Zm1.64-10.34h3.27v1.99h.06c.18-.63.57-1.19 1.1-1.59.54-.4 1.18-.6 1.85-.59.67-.05 1.34.15 1.87.56.54.42.89 1.02 1 1.69h.07c.2-.67.63-1.26 1.2-1.67.58-.41 1.27-.61 1.98-.58.46-.02.91.07 1.34.24.43.17.81.43 1.13.76.32.33.56.73.72 1.16.16.43.22.89.19 1.35V23h-3.38v-6.14c0-1.12-.51-1.64-1.46-1.64-.21 0-.42.04-.61.13-.19.08-.37.21-.51.37-.14.15-.24.34-.3.54s-.08.42-.05.63V23h-3.22v-6.18c0-1.04-.5-1.6-1.43-1.6-.21 0-.42.05-.62.13-.19.09-.37.22-.51.38s-.25.34-.31.55c-.06.2-.08.42-.06.63V23h-3.38l.06-10.36ZM29.84 9.96c-.57-1.31-1.33-2.53-2.25-3.62a15.115 15.115 0 0 0-4.99-3.99 15.212 15.212 0 0 0-12.48-.52c-2 .79-3.81 2.01-5.3 3.55-1.5 1.55-2.66 3.4-3.39 5.42S.41 14.98.57 17.12c.16 2.15.78 4.23 1.81 6.12 1.03 1.89 2.44 3.55 4.15 4.85 1.1.85 2.32 1.55 3.61 2.06 1.81.74 3.76 1.12 5.71 1.13a15.31 15.31 0 0 0 10.79-4.48c2.86-2.86 4.46-6.74 4.46-10.78.01-2.09-.42-4.15-1.26-6.06Zm-14-6.11c1.76 0 3.5.38 5.1 1.12-.39.17-.8.29-1.22.35-1.38.2-2.65.84-3.64 1.83-.99.98-1.63 2.26-1.83 3.63a3.32 3.32 0 0 1-.99 2.04c-.56.54-1.28.88-2.06.95a6.463 6.463 0 0 0-5.47 5.46c-.06.73-.38 1.42-.89 1.96a12.21 12.21 0 0 1-1.14-5.95 12.136 12.136 0 0 1 6.28-9.91c1.8-.99 3.82-1.51 5.87-1.51l-.01.03ZM6.52 23.9c.14-.12.27-.24.41-.37 1-.97 1.65-2.25 1.82-3.64.08-.78.42-1.5.99-2.05.53-.56 1.26-.9 2.03-.97 1.38-.19 2.66-.83 3.65-1.82.98-.98 1.62-2.26 1.82-3.64.05-.81.4-1.58.98-2.15a3.22 3.22 0 0 1 2.06-.93c1.27-.18 2.45-.74 3.38-1.61 1.07.88 1.97 1.94 2.67 3.13-.05.06-.1.11-.15.16-.54.56-1.26.91-2.04.99-1.38.19-2.66.83-3.65 1.82-.98.98-1.62 2.26-1.82 3.64-.08.77-.42 1.5-.97 2.05-.56.55-1.28.89-2.06.97-1.38.19-2.66.83-3.65 1.82-.99.98-1.64 2.26-1.85 3.64-.06.55-.25 1.08-.55 1.54-1.16-.69-2.19-1.56-3.07-2.58Zm9.32 4.35c-1.14 0-2.28-.16-3.38-.48.38-.7.62-1.46.72-2.25.08-.77.43-1.49.98-2.04s1.27-.9 2.04-.98c1.38-.19 2.66-.83 3.65-1.82.99-.98 1.63-2.26 1.83-3.64.08-.77.42-1.49.98-2.04.54-.55 1.27-.9 2.04-.97a6.59 6.59 0 0 0 2.89-1.13c.47 1.8.53 3.68.16 5.51a12.1 12.1 0 0 1-2.28 5.01 12.042 12.042 0 0 1-4.26 3.5c-1.67.83-3.5 1.26-5.37 1.27v.06Z"
          stroke="none"></path>
      </g>
    </g>
  </symbol>
  <symbol id="company-logo-2" viewBox="0 0 136 32">
    <g class="nc-icon-wrapper">
      <defs stroke="none" fill="none">
        <clipPath id="1732683015836-4211218_a" stroke="none" fill="none">
          <rect rx="0" width="135" height="31" transform="translate(.5 .5)" fill="currentColor"
            fill-opacity="0" stroke="none"></rect>
        </clipPath>
      </defs>
      <rect rx="0" width="135" height="31" transform="translate(.5 .5)" fill="none" stroke="none"></rect>
      <g clip-path="url(#1732683015836-4211218_a)" fill="currentColor" stroke="none">
        <path
          d="M32.93 7.8h3.12v15.16h-3.12V7.8ZM37.79 17.77c0-1.09.32-2.16.92-3.06.61-.91 1.46-1.62 2.46-2.03 1-.42 2.1-.53 3.16-.31a5.4 5.4 0 0 1 2.79 1.51 5.6 5.6 0 0 1 1.49 2.83c.21 1.07.09 2.18-.33 3.19-.41 1-1.12 1.86-2.02 2.46-.9.61-1.96.92-3.04.92-.72 0-1.43-.14-2.09-.41-.66-.28-1.27-.68-1.77-1.2-.51-.51-.91-1.12-1.18-1.79a5.64 5.64 0 0 1-.39-2.11Zm7.82 0c-.01-.47-.16-.93-.43-1.31-.27-.39-.64-.68-1.08-.86-.43-.17-.9-.21-1.36-.11-.46.1-.87.34-1.2.67-.32.34-.54.77-.63 1.23-.08.46-.03.94.15 1.37a2.37 2.37 0 0 0 2.18 1.46c.32.01.63-.05.93-.17.29-.12.56-.31.78-.54a2.314 2.314 0 0 0 .64-1.74h.02ZM60.99 12.58v9.87c0 3.48-2.71 4.96-5.44 4.96-.97.08-1.93-.11-2.79-.56a5.187 5.187 0 0 1-2.09-1.96l2.63-1.53c.22.44.56.79.98 1.03.42.23.9.33 1.37.28a2 2 0 0 0 .91-.09c.29-.09.56-.25.78-.47.22-.21.39-.47.5-.76.12-.28.16-.59.14-.9v-.96c-.36.45-.82.8-1.34 1.03-.52.24-1.09.34-1.66.32-1.38 0-2.7-.56-3.68-1.54a5.286 5.286 0 0 1 0-7.42 5.21 5.21 0 0 1 3.68-1.54c.57-.02 1.14.08 1.66.32.52.23.98.58 1.34 1.03v-1.05l3.01-.06Zm-3.01 4.98c.02-.5-.1-1-.37-1.43a2.56 2.56 0 0 0-1.09-.97 2.5 2.5 0 0 0-1.45-.19c-.49.09-.95.32-1.31.67-.36.34-.6.79-.71 1.28-.1.49-.06 1.01.12 1.47a2.486 2.486 0 0 0 2.32 1.58c.32.03.65-.02.95-.13.31-.11.59-.29.83-.51.23-.23.42-.51.54-.81.12-.31.18-.63.17-.96ZM62.75 17.77c0-1.09.32-2.16.92-3.06.6-.91 1.45-1.61 2.45-2.03.99-.42 2.09-.53 3.15-.31 1.06.21 2.03.74 2.8 1.51a5.53 5.53 0 0 1 1.17 6 5.411 5.411 0 0 1-2.01 2.47c-.9.61-1.96.93-3.04.93-.71 0-1.43-.13-2.09-.41-.67-.27-1.27-.68-1.78-1.19a5.45 5.45 0 0 1-1.57-3.91Zm7.81 0c-.01-.47-.16-.93-.43-1.31-.27-.39-.64-.69-1.07-.86-.44-.17-.91-.21-1.37-.11-.46.1-.87.34-1.2.68-.32.33-.54.76-.63 1.22-.08.47-.03.95.15 1.38.19.43.49.8.88 1.06s.85.4 1.31.39c.32.01.64-.05.93-.17.29-.12.56-.31.78-.54a2.314 2.314 0 0 0 .64-1.74h.01ZM75.08 9.79c0-.36.11-.73.32-1.03.2-.31.49-.55.83-.69.34-.14.71-.18 1.07-.11.36.08.69.25.94.51a1.898 1.898 0 0 1 .41 2.04c-.15.34-.38.63-.69.84-.3.2-.66.31-1.02.31-.49 0-.96-.2-1.31-.55a1.95 1.95 0 0 1-.55-1.32Zm.31 2.79h3.11v10.38h-3.11V12.58ZM91.85 17.77c.04.69-.06 1.38-.29 2.03a5.25 5.25 0 0 1-1.05 1.76c-.46.52-1.02.93-1.64 1.22-.62.3-1.29.47-1.97.5a3.882 3.882 0 0 1-3.12-1.27v5.13h-3.12V12.57h3.12v.98c.39-.43.87-.77 1.41-.99.54-.22 1.13-.31 1.71-.27.68.03 1.35.2 1.96.49.62.29 1.18.7 1.64 1.21.46.51.82 1.11 1.05 1.75.23.65.33 1.34.3 2.03Zm-3.11 0c-.02-.49-.17-.96-.45-1.36-.28-.4-.66-.71-1.11-.88-.45-.18-.95-.22-1.42-.12s-.9.35-1.24.7c-.33.35-.56.79-.65 1.27a2.466 2.466 0 0 0 2.42 2.93c.33.01.66-.04.97-.17.31-.12.59-.31.82-.55.23-.24.41-.53.52-.84.11-.31.16-.65.14-.98ZM101.35 19.85c0 2.39-2.08 3.41-4.29 3.41-.9.08-1.8-.11-2.59-.55a4.626 4.626 0 0 1-1.84-1.93l2.69-1.53c.1.37.33.7.65.92.32.23.7.33 1.08.31.74 0 1.11-.23 1.11-.65 0-1.15-5.06-.54-5.06-4.14 0-2.26 1.89-3.4 4.04-3.4.81-.03 1.62.15 2.34.54.71.39 1.31.97 1.73 1.68l-2.68 1.42c-.12-.27-.31-.5-.56-.66-.24-.16-.53-.25-.82-.25-.54 0-.87.21-.87.58 0 1.19 5.07.41 5.07 4.25ZM112.65 12.58v10.38h-3.12v-.97c-.35.43-.81.77-1.32 1-.5.22-1.06.32-1.61.29-2.08 0-3.86-1.5-3.86-4.3v-6.4h3.12v5.92c-.03.25 0 .5.08.74.08.23.22.45.39.63a1.648 1.648 0 0 0 1.33.52c1.12 0 1.91-.67 1.91-2.1v-5.71h3.08ZM130.32 16.58v6.38h-3.12v-6.1c0-1.05-.49-1.7-1.47-1.7-.99 0-1.62.72-1.62 1.95v5.85H121v-6.1c0-1.05-.49-1.7-1.48-1.7s-1.61.72-1.61 1.95v5.85h-3.12V12.58h3.12v.95c.32-.42.74-.76 1.23-.97.48-.22 1.01-.31 1.53-.27.53-.03 1.06.09 1.53.32.47.24.87.6 1.16 1.05.35-.47.8-.84 1.32-1.07.53-.24 1.1-.34 1.67-.3 2.43 0 3.97 1.7 3.97 4.29ZM14.35 5.07V.61H.42v30.64h13.93v-4.46c-2.85 0-5.59-1.14-7.61-3.18-2.02-2.03-3.15-4.8-3.15-7.68s1.13-5.64 3.15-7.68a10.75 10.75 0 0 1 7.61-3.18ZM14.35 5.07v21.72c2.85 0 5.59-1.14 7.61-3.18 2.02-2.03 3.15-4.8 3.15-7.68s-1.13-5.64-3.15-7.68a10.75 10.75 0 0 0-7.61-3.18ZM132.94 12.51a2.3 2.3 0 0 0 2.29-2.31c0-1.27-1.03-2.3-2.29-2.3s-2.29 1.03-2.29 2.3a2.3 2.3 0 0 0 2.29 2.31Z"
          stroke="none"></path>
      </g>
    </g>
  </symbol>
  <symbol id="company-logo-1" viewBox="0 0 160 32">
    <g class="nc-icon-wrapper">
      <defs stroke="none" fill="none">
        <clipPath id="1732683015835-2108066_a" stroke="none" fill="none">
          <rect rx="0" width="159" height="31" transform="translate(.5 .5)" fill="currentColor"
            fill-opacity="0" stroke="none"></rect>
        </clipPath>
      </defs>
      <rect rx="0" width="159" height="31" transform="translate(.5 .5)" fill="none" stroke="none"></rect>
      <g clip-path="url(#1732683015835-2108066_a)" fill="currentColor" stroke="none">
        <path
          d="M24.44 14.08c-.44.45-.78 1-1 1.6a4.5 4.5 0 0 0-.23 1.89l-.02-.02c.06.75-.03 1.51-.29 2.21-.25.71-.66 1.35-1.18 1.89-.53.53-1.16.94-1.86 1.2-.7.26-1.44.36-2.18.29l.02.03c-.88-.09-1.77.11-2.54.56-.77.44-1.39 1.12-1.77 1.94-.38.82-.49 1.73-.34 2.62.15.89.57 1.71 1.2 2.34.63.64 1.43 1.07 2.31 1.22.88.16 1.78.03 2.58-.35s1.47-1.01 1.91-1.79c.44-.79.63-1.69.55-2.59l.02.02c-.06-.75.04-1.5.29-2.21.26-.71.67-1.35 1.19-1.88.52-.54 1.16-.95 1.85-1.21.7-.26 1.45-.36 2.19-.29l-.03-.02c.72.06 1.45-.06 2.12-.35a4.396 4.396 0 0 0 2.53-3.34c.11-.73.04-1.48-.21-2.17s-.66-1.31-1.21-1.79c-.55-.49-1.2-.83-1.91-.99-.71-.16-1.45-.13-2.14.08-.7.2-1.33.59-1.85 1.11ZM15.78 20.35l-.02-.02c.63.07 1.26-.01 1.86-.23.59-.21 1.13-.56 1.58-1.01.45-.45.79-1 1-1.61.21-.6.29-1.25.23-1.88l.02.02c-.06-.75.04-1.51.29-2.22.26-.71.66-1.35 1.18-1.88.53-.53 1.16-.94 1.86-1.2.7-.26 1.44-.36 2.18-.3l-.02-.02c.88.08 1.77-.11 2.54-.56.77-.45 1.39-1.12 1.77-1.94.38-.82.5-1.73.35-2.62-.16-.89-.58-1.71-1.2-2.35a4.333 4.333 0 0 0-2.32-1.22c-.87-.15-1.77-.03-2.58.36-.8.38-1.47 1.01-1.91 1.79-.44.78-.63 1.68-.55 2.58l-.02-.02a5.207 5.207 0 0 1-1.47 4.1c-.53.53-1.16.94-1.86 1.2-.7.26-1.44.36-2.18.3l.02.02c-.63-.06-1.26.01-1.86.23-.59.21-1.13.56-1.58 1.01-.45.46-.79 1.01-1 1.61-.21.6-.29 1.25-.23 1.89l-.02-.02c.06.75-.04 1.5-.29 2.21-.26.71-.66 1.35-1.19 1.88-.52.54-1.15.95-1.85 1.21-.7.25-1.44.36-2.18.29l.02.02c-.88-.08-1.77.11-2.54.56-.78.45-1.39 1.13-1.77 1.94-.38.82-.5 1.74-.35 2.62.15.89.57 1.71 1.2 2.35a4.34 4.34 0 0 0 2.31 1.22c.88.15 1.78.03 2.58-.35a4.34 4.34 0 0 0 1.92-1.8c.44-.78.63-1.68.55-2.58l.02.02c-.06-.75.04-1.51.29-2.21.26-.71.66-1.35 1.18-1.89.53-.53 1.16-.94 1.86-1.2.7-.26 1.44-.36 2.18-.3ZM7.91 17.96c.44-.45.79-1 1-1.6a4.5 4.5 0 0 0 .23-1.89l.02.02c-.06-.75.04-1.51.29-2.21.26-.71.66-1.35 1.19-1.89.52-.53 1.15-.94 1.85-1.2.7-.26 1.44-.36 2.18-.29l-.02-.03c.88.09 1.77-.11 2.54-.55.78-.45 1.39-1.13 1.77-1.95.38-.81.5-1.73.35-2.62a4.54 4.54 0 0 0-1.2-2.34A4.34 4.34 0 0 0 15.8.19c-.88-.15-1.78-.03-2.58.35-.81.39-1.47 1.01-1.92 1.79-.44.79-.63 1.69-.55 2.59l-.02-.02c.07.75-.03 1.5-.29 2.21-.25.71-.66 1.35-1.18 1.88-.53.54-1.16.95-1.86 1.21-.69.26-1.44.36-2.18.29l.02.02a4.36 4.36 0 0 0-2.11.35c-.67.3-1.25.76-1.69 1.35-.44.58-.73 1.27-.84 2-.11.72-.04 1.47.21 2.16.25.69.66 1.31 1.21 1.79.54.49 1.2.83 1.91.99a4.2 4.2 0 0 0 2.14-.08c.7-.2 1.33-.59 1.84-1.11ZM44.28 6.07h3.49V23.3h-3.49V6.07ZM49.74 17.4c0-1.24.35-2.45 1.03-3.48a6.094 6.094 0 0 1 2.76-2.31 6.074 6.074 0 0 1 6.72 1.34c.87.87 1.45 1.98 1.69 3.2.24 1.21.12 2.47-.34 3.62a6.32 6.32 0 0 1-2.27 2.81 6.082 6.082 0 0 1-3.43 1.05 5.97 5.97 0 0 1-4.36-1.8 6.138 6.138 0 0 1-1.34-2.03c-.31-.76-.46-1.58-.46-2.4Zm8.84 0c-.02-.53-.19-1.05-.49-1.49-.3-.43-.72-.77-1.21-.96-.49-.2-1.03-.24-1.54-.13-.52.12-.99.38-1.35.76-.37.39-.62.87-.72 1.4-.09.52-.03 1.06.17 1.55.21.5.55.92.98 1.21.44.3.96.45 1.48.45.36.01.72-.05 1.06-.19.33-.14.63-.34.88-.61.25-.26.45-.57.57-.91.13-.35.19-.71.17-1.08ZM75.96 11.5v11.21c0 3.96-3.04 5.64-6.13 5.64a5.84 5.84 0 0 1-3.15-.65c-.98-.5-1.79-1.27-2.36-2.21l2.97-1.75c.24.49.62.9 1.1 1.17.47.26 1.02.37 1.55.32.35.05.7.02 1.03-.09a2.333 2.333 0 0 0 1.45-1.4c.13-.33.18-.69.15-1.04v-1.08c-.41.51-.93.91-1.52 1.18-.59.27-1.23.39-1.88.36-1.53-.05-2.98-.7-4.05-1.82a6.055 6.055 0 0 1 0-8.35 5.861 5.861 0 0 1 4.05-1.82 4.145 4.145 0 0 1 3.4 1.53v-1.2h3.39Zm-3.39 5.66c.02-.57-.12-1.13-.42-1.62a2.76 2.76 0 0 0-1.24-1.1c-.51-.24-1.08-.31-1.63-.21-.56.09-1.07.36-1.48.75-.4.4-.68.91-.8 1.47-.12.55-.07 1.14.14 1.67a2.827 2.827 0 0 0 2.62 1.79c.36.02.73-.03 1.08-.16.34-.12.66-.32.92-.58.27-.26.48-.57.62-.92.13-.34.2-.71.19-1.09ZM77.94 17.4c-.01-1.24.35-2.45 1.03-3.48a6.094 6.094 0 0 1 2.76-2.31 6.03 6.03 0 0 1 3.56-.37c1.19.24 2.29.83 3.16 1.71a6.322 6.322 0 0 1 1.34 6.82 6.19 6.19 0 0 1-2.27 2.81 6.05 6.05 0 0 1-3.42 1.05 5.97 5.97 0 0 1-2.36-.45 6.111 6.111 0 0 1-3.34-3.38c-.31-.76-.47-1.58-.46-2.4Zm8.83 0c-.01-.53-.18-1.05-.48-1.49-.31-.43-.73-.77-1.22-.96-.49-.2-1.02-.24-1.54-.13-.51.12-.98.38-1.35.76-.36.39-.61.87-.71 1.4-.1.52-.04 1.06.17 1.55.2.5.54.92.98 1.21.44.3.95.45 1.48.45.36.01.72-.05 1.05-.19.34-.14.64-.34.89-.61a2.654 2.654 0 0 0 .73-1.99ZM91.89 8.34c0-.42.12-.83.35-1.18.23-.35.56-.62.94-.79.38-.16.8-.2 1.21-.12.4.09.77.29 1.07.58a2.16 2.16 0 0 1 .45 2.32c-.16.39-.42.72-.77.95-.34.24-.75.36-1.16.36-.56 0-1.08-.23-1.48-.63-.39-.39-.61-.93-.61-1.49Zm.35 3.16h3.49v11.8h-3.5l.01-11.8ZM110.78 17.4c.05.78-.07 1.56-.33 2.3a5.81 5.81 0 0 1-1.17 1.99c-.51.58-1.14 1.05-1.83 1.38-.7.34-1.45.53-2.22.56-.65.04-1.29-.07-1.89-.32a4.27 4.27 0 0 1-1.57-1.12v5.83h-3.49V11.5h3.49v1.11c.43-.49.97-.87 1.57-1.12.6-.24 1.24-.36 1.89-.32.77.04 1.52.23 2.22.56.69.33 1.32.8 1.83 1.38a5.919 5.919 0 0 1 1.5 4.29Zm-3.48 0c-.02-.55-.19-1.09-.5-1.54-.31-.45-.75-.8-1.26-1a2.755 2.755 0 0 0-2.99.65c-.38.4-.63.9-.74 1.44-.1.54-.04 1.1.17 1.61.21.51.57.95 1.02 1.25.46.31.99.47 1.53.47.38.02.75-.05 1.1-.18.34-.14.66-.36.92-.63s.46-.6.59-.95c.13-.36.18-.74.16-1.12ZM121.54 19.76c0 2.72-2.32 3.87-4.83 3.87a4.97 4.97 0 0 1-2.92-.62c-.89-.5-1.62-1.26-2.08-2.19l3.02-1.74c.12.42.39.79.75 1.05.36.25.79.37 1.23.34.83 0 1.25-.26 1.25-.73 0-1.3-5.72-.62-5.72-4.7 0-2.57 2.14-3.87 4.56-3.87.91-.03 1.81.19 2.6.63.8.45 1.47 1.1 1.93 1.9l-2.98 1.62c-.13-.3-.34-.57-.62-.75-.28-.19-.6-.29-.93-.28-.61 0-.98.23-.98.66.01 1.34 5.72.44 5.72 4.81ZM134.28 11.5v11.8h-3.48v-1.11c-.41.49-.92.88-1.49 1.13-.58.25-1.21.36-1.84.31-2.34 0-4.34-1.7-4.34-4.88V11.5h3.49v6.73a1.953 1.953 0 0 0 .52 1.55c.19.2.42.36.68.46.26.11.54.15.82.13 1.28 0 2.16-.75 2.16-2.43V11.5h3.48ZM154.28 16.06v7.24h-3.49v-6.94c0-1.18-.56-1.93-1.67-1.93-1.16 0-1.82.82-1.82 2.22v6.65h-3.48v-6.94c0-1.18-.56-1.93-1.68-1.93-1.16 0-1.81.82-1.81 2.22v6.65h-3.49V11.5h3.49v1.08c.36-.48.84-.86 1.38-1.11.54-.24 1.14-.35 1.74-.3a3.43 3.43 0 0 1 3.04 1.56c.39-.53.9-.95 1.49-1.22a3.71 3.71 0 0 1 1.88-.34c2.67 0 4.42 1.94 4.42 4.89ZM157.23 11.43c1.43 0 2.59-1.18 2.59-2.63s-1.16-2.63-2.59-2.63-2.59 1.18-2.59 2.63 1.16 2.63 2.59 2.63Z"
          stroke="none"></path>
      </g>
    </g>
  </symbol>
  <symbol id="category-technology-icon" viewBox="0 0 48 48">
    <g fill="none" class="nc-icon-wrapper" stroke="none">
      <defs>
        <clipPath id="1732683015833-6082214_b">
          <rect rx="0" width="23" height="23" transform="translate(12.5 12.5)" fill="#fff"
            fill-opacity="0"></rect>
        </clipPath>
        <clipPath id="1732683015833-6082214_a">
          <rect rx="0" width="47" height="47" transform="translate(.5 .5)" fill="#fff"
            fill-opacity="0"></rect>
        </clipPath>
      </defs>
      <path
        d="M39 48H9c-4.98 0-9-4.03-9-9V9c0-4.98 4.02-9 9-9h30c4.97 0 9 4.02 9 9v30a9 9 0 0 1-9 9Z"
        fill="#FBF6EA"></path>
      <rect rx="0" width="47" height="47" transform="translate(.5 .5)" fill="none"></rect>
      <g clip-path="url(#1732683015833-6082214_a)">
        <rect rx="0" width="23" height="23" transform="translate(12.5 12.5)" fill="none"></rect>
        <g clip-path="url(#1732683015833-6082214_b)">
          <path
            d="M27.51 19.03c0 .77.63 1.4 1.41 1.4h4.18c-.08-.99-.31-1.93-.67-2.81h-3.51c-.78 0-1.41.63-1.41 1.41Z"
            fill="#232536"></path>
          <path
            d="M18.37 36h8.44c.39 0 .7-.32.7-.71v-3.61h1.41v-4.57l-7.03-5.27h-6.33c-.39 0-.7.31-.7.7 0 2.49 1.02 4.88 2.81 6.6v6.15c0 .39.31.71.7.71Z"
            fill="#FFD050"></path>
          <path
            d="M24 12c-.39 0-.71.31-.71.7v.7h-2.94a2.09 2.09 0 0 0-1.98-1.4c-1.16 0-2.11.94-2.11 2.1 0 1.17.95 2.11 2.11 2.11.92 0 1.69-.59 1.98-1.4h2.94v2.81h-7.16a2.1 2.1 0 0 0-1.98-1.41c-1.16 0-2.15.95-2.15 2.11 0 1.17.99 2.11 2.15 2.11.92 0 1.69-.59 1.98-1.4h7.16v2.11l6.75 5.06c.18.13.29.34.29.56v4.92h.7c1.16 0 2.11-.94 2.11-2.11v-3.51h2.15a.71.71 0 0 0 .59-1.1l-2.13-3.12h-4.83c-1.55 0-2.81-1.26-2.81-2.81s1.26-2.82 2.81-2.82h2.76A9.116 9.116 0 0 0 24 12Z"
            fill="#232536"></path>
        </g>
      </g>
    </g>
  </symbol>
  <symbol id="arrow-icon" viewBox="0 0 22.133 13.321">
    <g class="nc-icon-wrapper">
      <path
        d="m3.41 7.66 3.95 3.95c.4.39.4 1.01 0 1.41-.39.4-1.02.4-1.41 0L.29 7.36a.996.996 0 0 1 0-1.41L5.95.29a.996.996 0 0 1 1.41 0c.4.4.4 1.02 0 1.42L3.41 5.66h17.72c.56 0 1 .44 1 1s-.44 1-1 1H3.41Z"
        fill="currentColor" fill-rule="evenodd" stroke="none"></path>
    </g>
  </symbol>
</svg>